<?xml version="1.0" standalone="no"?>
<!DOCTYPE svg PUBLIC "-//W3C//DTD SVG 20010904//EN"
 "http://www.w3.org/TR/2001/REC-SVG-20010904/DTD/svg10.dtd">
<svg version="1.0" xmlns="http://www.w3.org/2000/svg"
 width="419.000000pt" height="114.000000pt" viewBox="0 0 419.000000 114.000000"
 preserveAspectRatio="xMidYMid meet">

<g transform="translate(0.000000,114.000000) scale(0.100000,-0.100000)"
fill="#000000" stroke="none">
<path d="M0 570 l0 -570 2095 0 2095 0 0 570 0 570 -2095 0 -2095 0 0 -570z
m1290 -20 l0 -340 -342 0 -343 0 340 340 c187 187 341 340 342 340 2 0 3 -153
3 -340z m1510 115 l0 -55 39 0 c28 0 49 -7 68 -24 27 -23 28 -29 31 -125 l4
-101 -36 0 -36 0 0 76 c0 87 -11 114 -45 114 -25 0 -25 -1 -25 -95 l0 -95 -40
0 -40 0 0 173 c0 96 3 177 7 180 3 4 21 7 40 7 l33 0 0 -55z m272 30 c14 -30
-3 -55 -37 -55 -12 0 -28 7 -35 15 -20 24 3 65 35 65 17 0 29 -8 37 -25z
m-1418 -15 c23 -8 24 -12 15 -38 -10 -28 -12 -29 -44 -20 -43 14 -85 3 -85
-21 0 -13 16 -25 53 -41 77 -33 97 -55 97 -107 0 -55 -30 -88 -89 -98 -40 -7
-141 10 -141 23 0 4 3 17 6 29 6 20 10 21 73 16 59 -5 69 -3 75 12 9 24 -15
49 -65 65 -46 15 -89 61 -89 93 1 31 23 68 51 83 28 16 107 18 143 4z m416
-35 c0 -35 0 -35 45 -35 43 0 45 -1 45 -30 0 -29 -2 -30 -46 -30 l-46 0 4 -61
c5 -67 16 -81 60 -72 24 5 28 2 28 -16 0 -11 0 -24 0 -28 0 -16 -62 -24 -97
-12 -51 16 -63 54 -63 193 0 111 1 115 23 119 45 9 47 8 47 -28z m-155 -60
c23 -22 25 -31 25 -123 l0 -99 -52 -6 c-64 -8 -128 6 -145 29 -7 10 -13 32
-13 50 0 45 38 74 97 74 37 0 44 3 41 18 -2 13 -15 18 -55 20 -42 2 -52 7 -56
24 -9 33 0 38 69 38 56 0 68 -4 89 -25z m491 -9 c30 -30 34 -40 34 -85 0 -66
-20 -104 -66 -126 -100 -47 -199 52 -165 166 15 50 59 79 120 79 36 0 49 -6
77 -34z m249 4 c0 -22 -5 -25 -35 -26 -78 -2 -80 -12 -7 -51 51 -27 52 -29 52
-73 0 -41 -3 -46 -35 -63 -25 -13 -48 -17 -83 -13 -60 6 -65 10 -60 41 5 24 7
25 59 19 46 -6 54 -4 54 10 0 10 -17 24 -44 36 -71 30 -89 91 -39 130 21 17
38 20 82 18 52 -3 56 -5 56 -28z m415 -95 l0 -125 -35 0 -35 0 0 125 0 125 35
0 35 0 0 -125z m240 115 c8 0 32 2 52 6 92 15 118 -19 118 -156 l0 -90 -35 0
-35 0 0 76 c0 87 -11 114 -45 114 -25 0 -25 -1 -25 -95 l0 -95 -35 0 -34 0 -3
93 -3 92 -27 3 -28 3 0 -95 0 -96 -35 0 -35 0 0 119 c0 86 4 121 13 125 6 3
41 3 77 1 36 -2 72 -5 80 -5z m300 -25 c12 -19 25 -35 28 -35 4 0 17 16 30 35
18 29 28 35 58 35 l35 0 -42 -60 -42 -60 30 -43 c17 -23 35 -52 42 -64 11 -22
10 -23 -28 -23 -29 0 -41 5 -45 18 -4 9 -15 28 -25 41 l-19 24 -23 -41 c-21
-37 -28 -42 -62 -42 l-37 0 17 28 c9 15 28 41 40 58 13 17 23 35 23 40 0 5
-16 33 -35 61 -19 29 -35 55 -35 58 0 3 15 5 34 5 28 0 38 -6 56 -35z"/>
<path d="M1822 459 c-35 -14 -25 -43 16 -47 31 -3 33 -2 30 24 -3 31 -13 36
-46 23z"/>
<path d="M2284 525 c-21 -32 -11 -90 17 -106 33 -17 69 13 69 57 0 19 -5 44
-10 55 -15 27 -56 24 -76 -6z"/>
</g>
</svg>
