<?xml version="1.0" encoding="UTF-8" standalone="no"?><!-- Generator: Gravit.io --><svg xmlns="http://www.w3.org/2000/svg" xmlns:xlink="http://www.w3.org/1999/xlink" style="isolation:isolate" viewBox="0 0 118 20" width="118pt" height="20pt"><defs><clipPath id="_clipPath_d8wTcriHYOQ3qC2ibm48Poli0MhPTPBs"><rect width="118" height="20"/></clipPath></defs><g clip-path="url(#_clipPath_d8wTcriHYOQ3qC2ibm48Poli0MhPTPBs)"><g><g><rect x="0" y="0" width="118" height="20" transform="matrix(1,0,0,1,0,0)" fill="rgb(94,118,130)"/></g><g><g clip-path="url(#_clipPath_63NUHIIx5Bz0nVYcbC0wStM3QXP3ycgH)"><text transform="matrix(1,0,0,1,28.937,15.931)" style="font-family:'Open Sans';font-weight:400;font-size:17.5px;font-style:normal;font-variant-ligatures:none;fill:#FFFFFF;stroke:none;">ANTCHAIN</text></g><defs><clipPath id="_clipPath_63NUHIIx5Bz0nVYcbC0wStM3QXP3ycgH"><rect x="0" y="0" width="90" height="23.832" transform="matrix(1,0,0,1,28.937,-2.774)"/></clipPath></defs><path d=" M 21.2 15.2 C 22.4 13.9 23.1 12.2 23.2 10.4 C 23.3 8.3 22.4 6.3 20.9 5 L 21.5 4.4 C 23 5.7 24 7.7 24 10 C 24.1 12.3 23.1 14.5 21.6 16 L 21.2 15.2 L 21.2 15.2 Z " fill="rgb(255,255,255)"/><path d=" M 18.3 17.9 C 17.5 18.1 16.7 18.3 15.9 18.3 C 15 18.3 14.1 18.1 13.3 17.9 C 13.2 17.9 13.1 17.8 13 17.7 L 13 17.7 C 12.8 17.4 13 17.1 13.3 17 L 13.3 17 C 14.1 17.3 15 17.5 16 17.5 C 16.7 17.5 17.4 17.4 18 17.2 L 18.3 17.9 L 18.3 17.9 Z " fill="rgb(255,255,255)"/><path d=" M 17.7 3.1 C 17.1 3 16.5 2.9 15.9 2.9 C 12.6 2.9 9.8 5.1 8.9 8.1 L 8.1 8 C 9 4.6 12.1 2.1 15.8 2 C 16.6 2 17.4 2.1 18.2 2.3 L 17.7 3.1 L 17.7 3.1 Z " fill="rgb(255,255,255)"/><path d=" M 22.1 3.5 C 22.1 4.8 21.1 5.8 19.8 5.8 C 18.5 5.8 17.5 4.8 17.5 3.5 C 17.5 2.2 18.5 1.2 19.8 1.2 C 21.1 1.2 22.1 2.2 22.1 3.5 Z  M 19.7 2 C 18.8 2 18.2 2.7 18.2 3.5 C 18.2 4.3 18.9 5 19.7 5 C 20.5 5 21.2 4.3 21.2 3.5 C 21.2 2.7 20.6 2 19.7 2 Z " fill="rgb(255,255,255)"/><path d=" M 22.2 16.7 C 22.2 18 21.2 19 19.9 19 C 18.6 19 17.6 18 17.6 16.7 C 17.6 15.4 18.6 14.4 19.9 14.4 C 21.2 14.4 22.2 15.4 22.2 16.7 Z  M 19.9 15.2 C 19 15.2 18.4 15.9 18.4 16.7 C 18.4 17.6 19.1 18.2 19.9 18.2 C 20.7 18.2 21.4 17.5 21.4 16.7 C 21.4 15.9 20.7 15.2 19.9 15.2 Z " fill="rgb(255,255,255)"/><path d=" M 10.5 10 C 10.5 11.3 9.5 12.3 8.2 12.3 C 6.9 12.3 5.9 11.3 5.9 10 C 5.9 8.7 6.9 7.7 8.2 7.7 C 9.5 7.7 10.5 8.7 10.5 10 Z  M 8.2 8.5 C 7.3 8.5 6.7 9.2 6.7 10 C 6.7 10.8 7.4 11.5 8.2 11.5 C 9 11.5 9.7 10.8 9.7 10 C 9.7 9.2 9 8.5 8.2 8.5 Z " fill="rgb(255,255,255)"/><rect x="19.1" y="5.6" width="0.8" height="9.3" transform="matrix(1,0,0,1,0,0)" fill="rgb(255,255,255)"/><rect x="13.702" y="2.102" width="0.8" height="9.7" transform="matrix(0.499,0.867,-0.867,0.499,13.093,-8.739)" fill="rgb(255,255,255)"/><circle vector-effect="non-scaling-stroke" cx="11.1" cy="14.9" r="0.6999999999999993" fill="rgb(255,255,255)"/><path d=" M 8.413 16.429 C 8.369 16.045 8.823 15.677 9.426 15.609 C 10.029 15.54 10.555 15.795 10.599 16.179 C 10.642 16.563 10.188 16.931 9.585 17 C 8.982 17.068 8.456 16.813 8.413 16.429 Z " fill="rgb(255,255,255)"/><path d=" M 10.9 14.4 L 10.7 14.5 L 10.4 13.8 C 10.4 13.7 10.4 13.7 10.5 13.6 L 10.5 13.6 C 10.6 13.6 10.6 13.6 10.7 13.7 L 10.9 14.4 L 10.9 14.4 Z " fill="rgb(255,255,255)"/><path d=" M 11.4 14.5 L 11.2 14.5 L 11.3 13.8 C 11.3 13.7 11.4 13.7 11.4 13.7 L 11.4 13.7 C 11.5 13.7 11.5 13.8 11.5 13.8 L 11.4 14.5 L 11.4 14.5 Z " fill="rgb(255,255,255)"/><path d=" M 10.1 17.4 L 10.1 17.4 C 10 17.4 10 17.4 10 17.3 L 9.8 16.7 L 10 16.6 L 10.2 17.2 C 10.2 17.3 10.1 17.4 10.1 17.4 Z " fill="rgb(255,255,255)"/><path d=" M 11.5 16.6 L 11.5 16.6 C 11.4 16.7 11.4 16.7 11.3 16.6 L 10.7 16.1 L 10.9 15.9 L 11.5 16.4 C 11.6 16.5 11.6 16.6 11.5 16.6 Z " fill="rgb(255,255,255)"/><path d=" M 10.402 15.505 C 10.544 15.336 10.831 15.342 11.042 15.52 C 11.253 15.697 11.31 15.979 11.168 16.148 C 11.026 16.317 10.739 16.31 10.528 16.132 C 10.316 15.955 10.26 15.674 10.402 15.505 Z " fill="rgb(255,255,255)"/><rect x="13.523" y="8.553" width="0.8" height="9.7" transform="matrix(0.504,-0.864,0.864,0.504,-4.67,18.676)" fill="rgb(255,255,255)"/></g></g></g></svg>