<?xml version="1.0" encoding="UTF-8" standalone="no"?><!-- Generator: Gravit.io --><svg xmlns="http://www.w3.org/2000/svg" xmlns:xlink="http://www.w3.org/1999/xlink" style="isolation:isolate" viewBox="0 0 118 20" width="118pt" height="20pt"><defs><clipPath id="_clipPath_XNBQZbLDtwrYlnVLsPSIrnrLC3Mc9BW7"><rect width="118" height="20"/></clipPath></defs><g clip-path="url(#_clipPath_XNBQZbLDtwrYlnVLsPSIrnrLC3Mc9BW7)"><g style="isolation:isolate"><g clip-path="url(#_clipPath_IUtb5lMKJzA7Kd4Nb2XJn9HWtr57jEq0)"><text transform="matrix(0.814,0,0,0.734,4.476,15.697)" style="font-family:'Open Sans';font-weight:800;font-size:20px;font-style:normal;fill:#ffffff;stroke:none;">RakibULinux</text></g><defs><clipPath id="_clipPath_IUtb5lMKJzA7Kd4Nb2XJn9HWtr57jEq0"><rect x="0" y="0" width="137.627" height="27.236" transform="matrix(0.814,0,0,0.734,4.476,0)"/></clipPath></defs><g><g opacity="0.2"><path d=" M 81.423 2.464 L 79.669 2.464 C 79.351 1.727 78.766 1.108 77.971 0.769 C 76.322 0.058 74.41 0.82 73.703 2.468 L 73.653 2.594 C 73.264 2.794 73 3.196 73 3.661 L 73 3.807 C 73 4.263 73.259 4.661 73.636 4.866 C 73.933 5.677 74.548 6.368 75.406 6.736 C 77.054 7.443 78.962 6.681 79.669 5.037 C 79.674 5.025 79.678 5.016 79.682 5.004 L 81.423 5.004 C 82.084 5.004 82.619 4.468 82.619 3.807 L 82.619 3.661 C 82.619 2.999 82.084 2.464 81.423 2.464 Z " fill="rgb(0,0,0)"/></g><path d=" M 81.715 2.296 L 79.962 2.296 C 79.644 1.56 79.059 0.941 78.264 0.602 C 76.615 -0.109 74.703 0.652 73.996 2.301 L 73.946 2.426 C 73.556 2.627 73.293 3.029 73.293 3.493 L 73.293 3.64 C 73.293 4.096 73.552 4.493 73.929 4.698 C 74.226 5.51 74.841 6.2 75.699 6.568 C 77.347 7.276 79.255 6.514 79.962 4.87 C 79.967 4.857 79.971 4.849 79.975 4.836 L 81.715 4.836 C 82.377 4.836 82.912 4.301 82.912 3.64 L 82.912 3.493 C 82.912 2.832 82.377 2.296 81.715 2.296 L 81.715 2.296 Z " fill="rgb(101,174,234)"/><path d=" M 74.682 4.832 L 81.611 4.832 C 82.377 4.832 83 4.209 83 3.443 C 83 2.677 82.377 2.054 81.611 2.054 L 74.682 2.054 C 73.916 2.054 73.293 2.677 73.293 3.443 C 73.293 4.213 73.916 4.832 74.682 4.832 Z " fill="rgb(193,195,198)"/><path d=" M 74.582 4.832 L 81.711 4.832 C 82.423 4.832 83 4.255 83 3.543 L 83 3.481 C 83 2.769 82.423 2.192 81.711 2.192 L 74.582 2.192 C 73.87 2.192 73.293 2.769 73.293 3.481 L 73.293 3.543 C 73.293 4.255 73.87 4.832 74.582 4.832 Z " fill="rgb(218,220,224)"/><path d=" M 74.49 4.832 L 81.711 4.832 C 82.372 4.832 82.908 4.296 82.908 3.635 L 82.908 3.489 C 82.908 2.828 82.372 2.292 81.711 2.292 L 74.49 2.292 C 73.828 2.292 73.293 2.828 73.293 3.489 L 73.293 3.635 C 73.293 4.296 73.828 4.832 74.49 4.832 L 74.49 4.832 Z " fill="rgb(193,195,198)"/><g opacity="0.3"><path d=" M 80.209 4.598 L 80.485 3.824 L 82.54 3.824 C 82.636 3.824 82.711 3.748 82.711 3.652 L 82.711 3.455 L 80.23 3.447 L 74.669 4.305 L 74.293 2.112 C 73.715 2.28 73.293 2.815 73.293 3.447 C 73.293 4.213 73.699 4.807 74.682 4.836 L 81.611 4.836 C 81.95 4.836 82.259 4.715 82.502 4.51 C 82.142 4.585 81.799 4.598 81.799 4.598 L 80.209 4.598 L 80.209 4.598 Z " fill="rgb(0,0,0)"/></g><path d=" M 73.732 3.581 C 73.732 1.789 75.187 0.334 76.979 0.334 C 78.771 0.334 80.226 1.789 80.226 3.581 C 80.226 5.373 78.771 6.828 76.979 6.828 C 75.187 6.828 73.732 5.373 73.732 3.581 Z " fill="rgb(101,174,234)"/><path d=" M 79.556 1.727 C 79.552 1.723 79.548 1.715 79.544 1.711 C 79.536 1.715 79.531 1.719 79.523 1.723 C 79.515 1.723 79.506 1.719 79.494 1.719 C 79.49 1.715 79.485 1.707 79.481 1.702 C 79.469 1.698 79.46 1.69 79.448 1.686 C 79.444 1.69 79.444 1.698 79.439 1.702 C 79.452 1.719 79.464 1.732 79.477 1.748 L 79.502 1.748 C 79.51 1.757 79.523 1.761 79.531 1.769 C 79.536 1.782 79.536 1.799 79.54 1.811 C 79.544 1.815 79.552 1.82 79.556 1.82 C 79.561 1.803 79.561 1.79 79.565 1.773 C 79.556 1.765 79.552 1.757 79.544 1.753 C 79.565 1.757 79.582 1.757 79.603 1.761 C 79.607 1.757 79.615 1.753 79.619 1.748 C 79.623 1.748 79.628 1.744 79.632 1.744 L 79.607 1.707 C 79.598 1.707 79.594 1.711 79.586 1.711 C 79.582 1.719 79.569 1.723 79.556 1.727 L 79.556 1.727 Z  M 79.845 5.066 C 79.833 5.075 79.82 5.079 79.808 5.087 C 79.799 5.087 79.787 5.087 79.778 5.083 C 79.762 5.096 79.745 5.108 79.732 5.117 C 79.724 5.121 79.711 5.121 79.703 5.125 L 79.69 5.15 C 79.682 5.158 79.678 5.167 79.669 5.175 C 79.674 5.188 79.674 5.204 79.678 5.217 C 79.678 5.225 79.674 5.234 79.674 5.242 C 79.678 5.255 79.686 5.267 79.69 5.284 L 79.69 5.313 C 79.695 5.322 79.695 5.326 79.699 5.334 C 79.699 5.343 79.695 5.351 79.695 5.359 C 79.695 5.376 79.661 5.389 79.661 5.405 C 79.695 5.355 79.72 5.326 79.749 5.271 C 79.745 5.263 79.782 5.234 79.782 5.225 C 79.778 5.217 79.774 5.204 79.77 5.196 C 79.778 5.192 79.782 5.188 79.791 5.179 C 79.803 5.179 79.778 5.179 79.791 5.179 L 79.795 5.121 C 79.803 5.104 79.799 5.112 79.812 5.096 C 79.812 5.091 79.812 5.087 79.808 5.083 L 79.824 5.066 C 79.828 5.066 79.841 5.075 79.845 5.066 C 79.841 5.062 79.824 5.071 79.874 5.079 C 79.862 5.075 79.854 5.071 79.845 5.066 L 79.845 5.066 Z " fill="rgb(84,158,209)"/><path d=" M 79.808 5.087 C 79.812 5.079 79.82 5.079 79.824 5.071 C 79.82 5.079 79.816 5.083 79.808 5.087 C 79.808 5.091 79.808 5.083 79.808 5.087 Z " fill="rgb(84,158,209)"/><path d=" M 79.464 1.535 L 79.414 1.573 C 79.406 1.548 79.397 1.522 79.385 1.497 L 79.335 1.435 C 79.335 1.435 79.31 1.451 79.314 1.447 C 79.314 1.443 79.331 1.405 79.331 1.405 L 79.293 1.38 C 79.289 1.368 79.28 1.359 79.276 1.347 L 79.251 1.334 C 79.251 1.343 79.247 1.351 79.247 1.355 L 79.197 1.317 L 79.184 1.33 C 79.176 1.326 79.167 1.322 79.155 1.317 C 79.159 1.33 79.159 1.343 79.159 1.351 C 79.155 1.363 79.151 1.38 79.151 1.393 C 79.142 1.393 79.13 1.389 79.121 1.389 C 79.121 1.384 79.117 1.38 79.117 1.372 L 79.105 1.372 C 79.1 1.38 79.096 1.389 79.096 1.401 C 79.088 1.389 79.084 1.376 79.075 1.363 C 79.084 1.355 79.092 1.347 79.105 1.338 C 79.084 1.338 79.059 1.334 79.038 1.334 C 79.033 1.338 79.025 1.343 79.021 1.347 L 79.004 1.33 C 79.004 1.326 79.008 1.317 79.008 1.313 C 78.996 1.309 78.983 1.301 78.971 1.297 C 78.954 1.297 78.933 1.292 78.916 1.292 C 78.921 1.301 78.921 1.309 78.925 1.313 L 78.908 1.313 C 78.908 1.305 78.908 1.297 78.904 1.288 C 78.895 1.292 78.887 1.292 78.879 1.297 C 78.866 1.288 78.854 1.28 78.841 1.276 L 78.849 1.267 C 78.858 1.271 78.87 1.276 78.879 1.28 L 78.879 1.25 C 78.874 1.246 78.87 1.242 78.862 1.238 C 78.866 1.234 78.87 1.23 78.874 1.221 C 78.866 1.221 78.854 1.221 78.845 1.225 L 78.82 1.238 C 78.812 1.234 78.799 1.23 78.791 1.23 C 78.778 1.23 78.766 1.23 78.753 1.234 C 78.728 1.234 78.703 1.234 78.678 1.23 C 78.669 1.225 78.661 1.221 78.649 1.217 C 78.653 1.221 78.653 1.225 78.657 1.23 C 78.64 1.225 78.628 1.225 78.611 1.221 L 78.59 1.242 C 78.59 1.25 78.586 1.263 78.586 1.271 C 78.561 1.271 78.531 1.267 78.506 1.267 C 78.506 1.255 78.502 1.238 78.502 1.225 L 78.502 1.204 C 78.51 1.2 78.523 1.2 78.531 1.196 C 78.548 1.2 78.569 1.204 78.586 1.213 C 78.582 1.2 78.577 1.184 78.573 1.171 C 78.569 1.154 78.565 1.142 78.561 1.125 C 78.552 1.121 78.54 1.117 78.531 1.112 C 78.515 1.1 78.502 1.083 78.485 1.071 C 78.49 1.083 78.49 1.096 78.494 1.108 C 78.49 1.117 78.481 1.129 78.477 1.137 C 78.469 1.146 78.456 1.15 78.448 1.158 C 78.452 1.167 78.456 1.175 78.46 1.188 C 78.456 1.196 78.452 1.2 78.452 1.209 C 78.444 1.209 78.439 1.213 78.431 1.213 C 78.423 1.225 78.414 1.238 78.402 1.25 C 78.397 1.25 78.393 1.246 78.389 1.246 C 78.393 1.238 78.393 1.23 78.397 1.221 L 78.364 1.188 C 78.351 1.188 78.339 1.192 78.331 1.192 C 78.322 1.188 78.314 1.188 78.305 1.184 C 78.301 1.192 78.297 1.196 78.297 1.204 C 78.28 1.209 78.264 1.209 78.247 1.213 C 78.247 1.221 78.247 1.234 78.251 1.242 C 78.255 1.25 78.264 1.259 78.268 1.263 L 78.268 1.284 C 78.251 1.276 78.234 1.267 78.222 1.259 C 78.218 1.25 78.209 1.242 78.205 1.234 C 78.188 1.213 78.172 1.196 78.159 1.175 C 78.155 1.184 78.151 1.192 78.146 1.196 C 78.142 1.2 78.134 1.204 78.13 1.209 C 78.13 1.217 78.134 1.225 78.134 1.234 C 78.142 1.242 78.155 1.25 78.163 1.259 C 78.159 1.271 78.159 1.284 78.155 1.297 L 78.13 1.297 C 78.109 1.284 78.092 1.271 78.071 1.259 C 78.071 1.25 78.075 1.242 78.075 1.238 C 78.071 1.23 78.067 1.225 78.063 1.217 C 78.059 1.221 78.05 1.221 78.046 1.225 L 78.059 1.15 C 78.063 1.142 78.067 1.129 78.071 1.121 C 78.067 1.112 78.063 1.104 78.054 1.091 L 78.017 1.066 C 78.017 1.058 78.021 1.054 78.021 1.045 C 78.013 1.041 78.008 1.037 78 1.033 C 78.004 1.029 78.008 1.025 78.017 1.02 C 78.008 0.999 78 0.983 77.992 0.962 C 77.992 0.962 78.033 1.016 78.038 1.02 C 78.042 1.025 78.063 1.058 78.063 1.058 C 78.067 1.05 78.071 1.045 78.08 1.037 C 78.084 1.045 78.084 1.058 78.088 1.066 C 78.1 1.071 78.113 1.079 78.126 1.083 C 78.138 1.096 78.146 1.108 78.159 1.121 L 78.222 1.146 C 78.238 1.15 78.259 1.154 78.276 1.154 C 78.301 1.146 78.322 1.137 78.347 1.125 C 78.351 1.108 78.351 1.096 78.356 1.079 C 78.331 1.05 78.305 1.016 78.28 0.987 C 78.238 0.949 78.201 0.907 78.159 0.87 C 78.126 0.849 78.096 0.832 78.063 0.811 C 78.071 0.807 78.08 0.807 78.092 0.803 C 78.084 0.794 78.075 0.782 78.067 0.773 C 78.054 0.769 78.042 0.769 78.033 0.765 C 78.021 0.761 78.008 0.753 77.992 0.748 L 77.958 0.748 L 77.958 0.711 C 77.983 0.715 78.008 0.719 78.033 0.719 C 78.025 0.707 78.017 0.698 78.008 0.686 C 78 0.673 77.987 0.661 77.979 0.644 C 77.971 0.644 77.962 0.64 77.954 0.64 L 77.954 0.606 C 77.946 0.602 77.937 0.602 77.929 0.598 C 77.925 0.61 77.916 0.623 77.912 0.635 C 77.9 0.64 77.891 0.644 77.879 0.648 C 77.879 0.648 77.866 0.635 77.87 0.631 L 77.9 0.602 C 77.883 0.606 77.866 0.614 77.849 0.619 C 77.845 0.623 77.845 0.627 77.841 0.635 C 77.824 0.644 77.808 0.648 77.791 0.656 L 77.803 0.619 C 77.812 0.619 77.824 0.614 77.833 0.614 C 77.824 0.602 77.816 0.589 77.803 0.581 C 77.795 0.589 77.791 0.598 77.782 0.606 C 77.778 0.602 77.774 0.598 77.77 0.589 C 77.762 0.585 77.753 0.585 77.745 0.581 C 77.732 0.585 77.715 0.589 77.703 0.594 C 77.695 0.585 77.682 0.577 77.674 0.568 C 77.661 0.56 77.649 0.556 77.636 0.548 C 77.64 0.556 77.64 0.564 77.644 0.573 C 77.649 0.581 77.653 0.594 77.657 0.602 C 77.644 0.594 77.632 0.581 77.619 0.573 C 77.615 0.581 77.615 0.589 77.611 0.594 C 77.607 0.594 77.598 0.594 77.594 0.589 C 77.598 0.581 77.598 0.573 77.603 0.564 C 77.594 0.568 77.59 0.573 77.582 0.577 C 77.582 0.573 77.582 0.568 77.577 0.56 C 77.561 0.568 77.548 0.573 77.531 0.581 C 77.527 0.568 77.527 0.56 77.523 0.548 C 77.519 0.552 77.51 0.556 77.506 0.56 C 77.51 0.568 77.515 0.577 77.523 0.585 C 77.515 0.585 77.502 0.581 77.494 0.581 C 77.485 0.581 77.477 0.581 77.464 0.577 C 77.452 0.589 77.444 0.602 77.431 0.614 C 77.41 0.619 77.393 0.619 77.372 0.623 C 77.377 0.627 77.381 0.631 77.381 0.635 L 77.41 0.635 C 77.397 0.64 77.389 0.648 77.377 0.652 C 77.372 0.661 77.368 0.665 77.364 0.673 C 77.356 0.661 77.351 0.648 77.343 0.631 C 77.339 0.64 77.335 0.648 77.326 0.652 C 77.322 0.661 77.318 0.669 77.318 0.677 C 77.289 0.681 77.259 0.686 77.23 0.694 C 77.222 0.698 77.213 0.702 77.205 0.711 C 77.209 0.719 77.209 0.723 77.213 0.732 L 77.126 0.744 L 77.126 0.765 C 77.113 0.761 77.105 0.757 77.092 0.753 C 77.054 0.769 77.021 0.782 76.983 0.799 C 76.983 0.803 76.983 0.807 76.987 0.815 L 77.038 0.803 C 77.025 0.811 77.013 0.824 77 0.832 C 76.983 0.832 76.971 0.828 76.954 0.828 C 76.958 0.82 76.958 0.807 76.962 0.799 C 76.954 0.794 76.941 0.79 76.933 0.786 C 76.925 0.782 76.916 0.778 76.908 0.778 C 76.908 0.782 76.908 0.79 76.904 0.794 C 76.908 0.799 76.908 0.803 76.912 0.807 C 76.9 0.811 76.887 0.811 76.87 0.815 C 76.858 0.811 76.845 0.811 76.837 0.807 C 76.837 0.815 76.841 0.824 76.841 0.828 C 76.828 0.832 76.82 0.836 76.808 0.836 C 76.803 0.832 76.795 0.828 76.791 0.824 C 76.787 0.828 76.778 0.832 76.774 0.84 L 76.799 0.853 C 76.782 0.853 76.77 0.857 76.753 0.857 C 76.745 0.849 76.732 0.84 76.724 0.836 L 76.707 0.853 C 76.715 0.857 76.728 0.861 76.736 0.866 C 76.724 0.866 76.711 0.866 76.699 0.87 C 76.699 0.87 76.69 0.886 76.695 0.891 C 76.699 0.895 76.728 0.907 76.728 0.907 L 76.753 0.907 C 76.757 0.912 76.757 0.916 76.762 0.92 C 76.741 0.916 76.724 0.912 76.703 0.907 C 76.695 0.903 76.686 0.903 76.674 0.899 C 76.669 0.907 76.665 0.92 76.657 0.928 C 76.665 0.932 76.678 0.941 76.686 0.945 C 76.686 0.945 76.665 0.97 76.674 0.97 C 76.682 0.97 76.741 0.953 76.741 0.953 C 76.728 0.962 76.72 0.966 76.707 0.974 C 76.699 0.983 76.69 0.987 76.686 0.995 C 76.674 0.995 76.661 0.991 76.649 0.991 C 76.64 0.991 76.636 0.991 76.628 0.995 C 76.632 1.004 76.632 1.008 76.636 1.016 C 76.653 1.016 76.665 1.016 76.682 1.02 C 76.678 1.029 76.669 1.041 76.665 1.05 C 76.665 1.05 76.632 1.05 76.636 1.058 C 76.64 1.066 76.64 1.091 76.64 1.091 C 76.653 1.096 76.661 1.1 76.674 1.108 C 76.678 1.117 76.682 1.121 76.682 1.129 C 76.682 1.129 76.795 1.112 76.799 1.117 C 76.803 1.121 76.824 1.137 76.824 1.137 C 76.841 1.129 76.862 1.125 76.879 1.117 C 76.87 1.129 76.866 1.142 76.858 1.154 C 76.862 1.167 76.87 1.175 76.874 1.188 C 76.866 1.196 76.862 1.204 76.854 1.217 C 76.862 1.246 76.866 1.271 76.874 1.301 L 76.858 1.317 C 76.854 1.334 76.845 1.355 76.841 1.376 C 76.854 1.384 76.866 1.389 76.879 1.397 C 76.891 1.397 76.904 1.393 76.916 1.393 C 76.916 1.384 76.912 1.376 76.912 1.372 C 76.925 1.368 76.937 1.363 76.954 1.359 C 76.971 1.363 76.983 1.372 77 1.376 C 77.008 1.38 77.021 1.38 77.029 1.384 C 77.042 1.372 77.054 1.363 77.063 1.351 C 77.05 1.355 77.042 1.359 77.029 1.359 C 77.033 1.351 77.038 1.343 77.046 1.334 C 77.059 1.322 77.071 1.305 77.084 1.292 C 77.088 1.276 77.096 1.263 77.1 1.246 C 77.113 1.246 77.126 1.246 77.138 1.242 L 77.155 1.259 C 77.172 1.255 77.188 1.246 77.201 1.242 C 77.197 1.234 77.188 1.23 77.184 1.221 C 77.197 1.221 77.209 1.217 77.222 1.217 C 77.226 1.204 77.226 1.196 77.23 1.184 C 77.226 1.175 77.222 1.171 77.218 1.163 L 77.218 1.142 C 77.209 1.137 77.205 1.133 77.197 1.129 C 77.188 1.129 77.176 1.129 77.167 1.125 C 77.176 1.1 77.184 1.075 77.197 1.054 C 77.205 1.045 77.213 1.041 77.222 1.033 L 77.234 0.995 C 77.234 0.995 77.234 0.987 77.255 0.991 L 77.272 0.995 C 77.276 0.987 77.28 0.979 77.285 0.966 C 77.297 0.966 77.305 0.966 77.318 0.97 C 77.322 0.962 77.331 0.958 77.335 0.949 C 77.351 0.953 77.372 0.958 77.389 0.966 C 77.41 0.958 77.427 0.953 77.448 0.945 L 77.46 0.92 C 77.464 0.912 77.469 0.899 77.473 0.891 C 77.485 0.886 77.498 0.882 77.515 0.874 L 77.552 0.861 C 77.565 0.866 77.573 0.87 77.586 0.878 C 77.598 0.882 77.615 0.886 77.628 0.895 C 77.636 0.903 77.644 0.912 77.649 0.92 C 77.644 0.924 77.64 0.928 77.636 0.937 L 77.636 0.953 C 77.628 0.953 77.619 0.958 77.611 0.958 L 77.594 0.958 C 77.586 0.97 77.577 0.983 77.569 0.991 C 77.552 0.999 77.54 1.008 77.523 1.016 C 77.523 1.016 77.46 1.025 77.448 1.029 L 77.431 1.037 C 77.427 1.045 77.423 1.054 77.423 1.058 C 77.418 1.071 77.418 1.087 77.414 1.1 C 77.406 1.108 77.397 1.121 77.389 1.129 C 77.385 1.142 77.385 1.154 77.381 1.167 C 77.393 1.171 77.402 1.179 77.414 1.184 C 77.423 1.196 77.427 1.204 77.435 1.217 L 77.402 1.217 C 77.397 1.225 77.397 1.23 77.393 1.238 C 77.402 1.242 77.406 1.246 77.414 1.255 C 77.414 1.255 77.435 1.23 77.435 1.238 C 77.435 1.246 77.439 1.271 77.439 1.271 L 77.502 1.271 C 77.515 1.267 77.531 1.263 77.544 1.255 C 77.561 1.263 77.577 1.267 77.594 1.276 L 77.64 1.276 C 77.636 1.28 77.636 1.288 77.632 1.292 C 77.64 1.305 77.653 1.317 77.661 1.33 C 77.669 1.334 77.682 1.338 77.69 1.343 L 77.72 1.372 C 77.699 1.363 77.678 1.359 77.657 1.351 C 77.644 1.355 77.632 1.355 77.619 1.359 C 77.611 1.359 77.603 1.359 77.594 1.363 C 77.586 1.355 77.577 1.351 77.565 1.343 C 77.556 1.338 77.548 1.338 77.54 1.334 C 77.54 1.338 77.536 1.343 77.536 1.347 C 77.519 1.338 77.502 1.326 77.485 1.317 C 77.469 1.317 77.448 1.313 77.431 1.313 L 77.397 1.313 C 77.393 1.33 77.385 1.347 77.381 1.363 C 77.389 1.363 77.393 1.368 77.402 1.368 C 77.393 1.376 77.389 1.384 77.381 1.393 L 77.364 1.409 C 77.364 1.418 77.368 1.43 77.368 1.439 C 77.351 1.439 77.331 1.443 77.314 1.443 C 77.314 1.435 77.31 1.422 77.31 1.414 C 77.31 1.405 77.31 1.397 77.314 1.389 C 77.297 1.389 77.276 1.393 77.259 1.393 C 77.247 1.409 77.234 1.422 77.222 1.439 C 77.209 1.455 77.197 1.472 77.184 1.485 C 77.184 1.493 77.184 1.502 77.18 1.51 C 77.172 1.514 77.159 1.518 77.151 1.522 C 77.155 1.514 77.155 1.502 77.159 1.493 C 77.146 1.497 77.134 1.502 77.121 1.51 C 77.121 1.518 77.117 1.527 77.117 1.535 L 77.079 1.56 C 77.079 1.556 77.075 1.552 77.075 1.548 L 77.033 1.548 C 77.033 1.539 77.029 1.531 77.029 1.518 L 77.054 1.531 L 77.054 1.51 C 77.042 1.506 77.033 1.506 77.021 1.502 C 77.008 1.506 76.996 1.51 76.987 1.514 C 76.946 1.506 76.908 1.497 76.866 1.489 C 76.845 1.472 76.82 1.455 76.799 1.435 C 76.791 1.439 76.787 1.443 76.778 1.443 C 76.77 1.443 76.762 1.439 76.749 1.439 C 76.745 1.443 76.736 1.447 76.732 1.451 C 76.728 1.443 76.728 1.435 76.724 1.426 C 76.715 1.418 76.707 1.414 76.703 1.405 C 76.703 1.389 76.699 1.372 76.699 1.355 C 76.707 1.351 76.711 1.347 76.72 1.347 C 76.715 1.343 76.707 1.343 76.703 1.338 C 76.711 1.326 76.724 1.317 76.732 1.305 C 76.745 1.297 76.757 1.284 76.77 1.276 C 76.774 1.28 76.778 1.288 76.782 1.292 L 76.799 1.276 L 76.774 1.25 C 76.778 1.242 76.787 1.234 76.791 1.225 L 76.774 1.209 L 76.795 1.209 L 76.803 1.2 C 76.808 1.192 76.812 1.188 76.812 1.179 C 76.799 1.179 76.787 1.184 76.774 1.184 C 76.77 1.192 76.762 1.196 76.757 1.204 C 76.745 1.2 76.728 1.192 76.715 1.188 C 76.703 1.196 76.695 1.2 76.682 1.209 C 76.686 1.213 76.724 1.2 76.724 1.2 C 76.732 1.204 76.736 1.209 76.745 1.209 C 76.745 1.217 76.745 1.221 76.741 1.23 L 76.711 1.23 C 76.703 1.234 76.695 1.234 76.69 1.238 L 76.674 1.221 C 76.669 1.234 76.661 1.246 76.657 1.259 C 76.665 1.263 76.669 1.267 76.678 1.276 C 76.669 1.28 76.661 1.284 76.653 1.292 C 76.653 1.301 76.649 1.313 76.649 1.322 C 76.653 1.326 76.661 1.326 76.665 1.33 C 76.661 1.338 76.661 1.343 76.657 1.351 C 76.653 1.351 76.649 1.355 76.644 1.355 C 76.649 1.363 76.653 1.372 76.653 1.376 L 76.653 1.389 L 76.628 1.401 C 76.632 1.409 76.632 1.418 76.636 1.426 C 76.628 1.426 76.611 1.418 76.611 1.418 C 76.611 1.426 76.607 1.439 76.607 1.447 L 76.586 1.426 C 76.577 1.426 76.569 1.43 76.556 1.43 C 76.556 1.435 76.552 1.443 76.552 1.447 L 76.54 1.447 L 76.54 1.422 C 76.531 1.418 76.519 1.414 76.51 1.414 C 76.506 1.409 76.498 1.405 76.494 1.405 C 76.477 1.409 76.46 1.409 76.444 1.414 C 76.427 1.418 76.414 1.426 76.397 1.43 C 76.389 1.439 76.385 1.451 76.377 1.46 C 76.368 1.464 76.356 1.472 76.347 1.476 C 76.331 1.472 76.318 1.464 76.301 1.46 L 76.222 1.46 C 76.222 1.472 76.218 1.485 76.218 1.497 C 76.197 1.502 76.176 1.502 76.159 1.506 C 76.151 1.51 76.142 1.518 76.13 1.522 C 76.117 1.518 76.1 1.51 76.088 1.506 L 76.088 1.476 C 76.079 1.476 76.071 1.476 76.063 1.472 C 76.059 1.493 76.05 1.514 76.046 1.535 C 76.025 1.531 76.004 1.527 75.987 1.527 C 75.983 1.522 75.983 1.518 75.979 1.51 C 75.954 1.506 75.929 1.497 75.908 1.493 C 75.904 1.502 75.9 1.51 75.895 1.522 C 75.908 1.531 75.916 1.539 75.929 1.552 C 75.933 1.564 75.937 1.581 75.937 1.594 C 75.946 1.589 75.954 1.589 75.962 1.585 C 75.967 1.602 75.971 1.614 75.971 1.631 C 75.971 1.631 75.941 1.661 75.946 1.661 C 75.95 1.665 75.987 1.719 75.987 1.719 C 75.979 1.744 75.971 1.769 75.962 1.799 C 75.95 1.811 75.941 1.828 75.929 1.84 L 75.866 1.84 C 75.858 1.832 75.849 1.824 75.837 1.815 C 75.812 1.807 75.791 1.794 75.766 1.786 L 75.69 1.748 C 75.686 1.744 75.682 1.736 75.678 1.732 C 75.661 1.732 75.649 1.727 75.632 1.727 C 75.632 1.732 75.628 1.736 75.628 1.74 C 75.619 1.736 75.615 1.732 75.607 1.727 C 75.59 1.732 75.577 1.732 75.561 1.736 C 75.565 1.74 75.573 1.799 75.573 1.799 C 75.565 1.803 75.561 1.807 75.552 1.811 C 75.552 1.828 75.548 1.845 75.548 1.861 C 75.54 1.874 75.527 1.886 75.519 1.899 L 75.469 1.949 C 75.46 1.958 75.456 1.97 75.448 1.979 C 75.456 1.979 75.464 1.979 75.473 1.983 C 75.473 1.987 75.469 1.991 75.469 1.995 L 75.452 1.995 C 75.456 1.999 75.456 2.008 75.46 2.012 C 75.456 2.025 75.452 2.033 75.452 2.045 C 75.444 2.058 75.431 2.066 75.423 2.079 C 75.431 2.083 75.439 2.083 75.448 2.087 C 75.452 2.091 75.456 2.096 75.464 2.1 C 75.464 2.108 75.469 2.112 75.469 2.121 L 75.519 2.121 C 75.523 2.138 75.527 2.15 75.531 2.167 C 75.536 2.179 75.536 2.188 75.54 2.2 C 75.565 2.2 75.594 2.196 75.619 2.196 C 75.64 2.204 75.665 2.217 75.686 2.225 C 75.703 2.213 75.724 2.204 75.741 2.192 L 75.799 2.192 C 75.808 2.179 75.816 2.171 75.82 2.158 C 75.841 2.15 75.858 2.142 75.879 2.138 C 75.874 2.125 75.87 2.112 75.87 2.1 C 75.9 2.087 75.925 2.071 75.954 2.058 C 75.996 2.05 76.038 2.037 76.079 2.029 C 76.088 2.008 76.1 1.987 76.109 1.966 C 76.126 1.966 76.142 1.962 76.159 1.962 C 76.18 1.979 76.201 1.991 76.218 2.008 C 76.243 2.008 76.272 2.012 76.297 2.012 L 76.372 1.987 C 76.389 2.008 76.41 2.025 76.427 2.045 C 76.423 2.087 76.423 2.129 76.418 2.175 C 76.427 2.192 76.435 2.213 76.444 2.23 C 76.46 2.246 76.477 2.259 76.494 2.276 C 76.51 2.309 76.523 2.347 76.54 2.38 C 76.536 2.401 76.536 2.422 76.531 2.443 C 76.519 2.46 76.502 2.476 76.49 2.493 L 76.506 2.51 C 76.536 2.489 76.565 2.472 76.594 2.451 C 76.594 2.43 76.594 2.409 76.59 2.389 C 76.598 2.38 76.611 2.372 76.619 2.368 C 76.628 2.384 76.64 2.401 76.649 2.418 C 76.657 2.414 76.669 2.409 76.678 2.405 C 76.665 2.384 76.653 2.363 76.64 2.347 C 76.628 2.33 76.615 2.317 76.603 2.301 C 76.607 2.292 76.615 2.288 76.619 2.28 C 76.598 2.263 76.582 2.25 76.561 2.234 C 76.552 2.192 76.548 2.15 76.54 2.108 C 76.527 2.091 76.519 2.075 76.506 2.058 C 76.519 2.045 76.531 2.033 76.54 2.02 C 76.54 2.008 76.54 1.995 76.544 1.987 L 76.607 1.999 L 76.582 2.025 C 76.577 2.037 76.577 2.054 76.573 2.066 C 76.586 2.066 76.594 2.062 76.607 2.062 C 76.619 2.054 76.628 2.041 76.64 2.033 L 76.64 2.071 C 76.636 2.096 76.632 2.117 76.623 2.142 C 76.669 2.209 76.72 2.271 76.766 2.338 C 76.757 2.351 76.753 2.359 76.745 2.372 L 76.72 2.397 L 76.732 2.46 C 76.736 2.485 76.741 2.51 76.749 2.535 C 76.745 2.548 76.745 2.56 76.741 2.573 C 76.753 2.581 76.77 2.594 76.782 2.602 L 76.795 2.64 C 76.787 2.627 76.774 2.614 76.766 2.598 L 76.732 2.598 C 76.728 2.619 76.724 2.644 76.72 2.665 C 76.736 2.673 76.753 2.686 76.77 2.694 L 76.808 2.681 C 76.812 2.673 76.816 2.661 76.824 2.652 C 76.837 2.656 76.845 2.665 76.858 2.669 C 76.87 2.673 76.879 2.673 76.891 2.677 C 76.887 2.673 76.879 2.661 76.87 2.602 L 76.858 2.522 C 76.862 2.506 76.87 2.489 76.874 2.472 L 76.887 2.522 C 76.904 2.518 76.921 2.518 76.937 2.514 C 76.937 2.502 76.933 2.489 76.933 2.476 C 76.962 2.489 76.996 2.506 77.025 2.518 C 77.025 2.518 77.042 2.539 77.038 2.548 C 77.033 2.556 77.008 2.564 77.008 2.564 C 77.029 2.56 77.054 2.56 77.075 2.556 L 77.151 2.556 L 77.126 2.506 L 77.126 2.46 L 77.176 2.422 C 77.192 2.405 77.209 2.393 77.226 2.376 C 77.247 2.355 77.268 2.338 77.289 2.317 C 77.289 2.317 77.351 2.267 77.351 2.276 C 77.351 2.284 77.402 2.296 77.402 2.296 C 77.41 2.313 77.414 2.33 77.423 2.347 L 77.46 2.347 C 77.464 2.355 77.469 2.363 77.473 2.376 C 77.448 2.376 77.427 2.376 77.402 2.38 C 77.414 2.393 77.423 2.409 77.435 2.422 C 77.427 2.435 77.418 2.447 77.414 2.455 L 77.51 2.455 C 77.531 2.46 77.548 2.464 77.569 2.472 C 77.573 2.464 77.577 2.46 77.582 2.451 L 77.519 2.426 C 77.519 2.418 77.523 2.409 77.523 2.401 C 77.523 2.401 77.494 2.338 77.498 2.347 C 77.502 2.355 77.552 2.389 77.552 2.389 C 77.59 2.384 77.628 2.376 77.669 2.372 C 77.669 2.372 77.762 2.393 77.753 2.393 C 77.745 2.393 77.661 2.401 77.661 2.401 C 77.661 2.414 77.665 2.426 77.665 2.439 L 77.59 2.464 C 77.594 2.472 77.594 2.476 77.598 2.485 L 77.636 2.56 C 77.649 2.589 77.661 2.614 77.674 2.644 C 77.686 2.661 77.699 2.677 77.715 2.69 C 77.715 2.711 77.711 2.727 77.711 2.748 C 77.686 2.757 77.661 2.769 77.632 2.778 C 77.623 2.769 77.611 2.761 77.603 2.753 L 77.527 2.727 C 77.502 2.702 77.477 2.677 77.456 2.652 C 77.452 2.635 77.448 2.623 77.444 2.606 C 77.423 2.602 77.406 2.598 77.385 2.594 C 77.368 2.585 77.351 2.581 77.335 2.573 C 77.305 2.577 77.272 2.581 77.243 2.585 C 77.218 2.577 77.192 2.573 77.172 2.564 C 77.172 2.573 77.176 2.581 77.176 2.589 C 77.163 2.585 77.146 2.581 77.134 2.577 C 77.113 2.573 77.096 2.568 77.075 2.568 C 77.059 2.568 77.042 2.573 77.025 2.573 L 76.996 2.602 C 77.004 2.606 77.013 2.614 77.021 2.619 C 77.021 2.631 77.017 2.648 77.017 2.661 L 76.979 2.661 L 76.979 2.702 L 76.992 2.753 C 77 2.769 77.008 2.79 77.017 2.807 C 77.029 2.815 77.042 2.82 77.054 2.828 C 77.059 2.845 77.059 2.861 77.063 2.878 L 77.1 2.878 L 77.126 2.853 L 77.163 2.891 L 77.188 2.928 C 77.222 2.928 77.255 2.932 77.289 2.932 C 77.297 2.937 77.301 2.941 77.31 2.945 C 77.318 2.949 77.326 2.953 77.335 2.953 C 77.314 2.999 77.293 3.045 77.272 3.087 C 77.234 3.129 77.192 3.171 77.155 3.217 C 77.13 3.213 77.105 3.204 77.079 3.2 C 77.063 3.196 77.046 3.196 77.029 3.192 C 77.025 3.184 77.025 3.171 77.021 3.163 L 76.958 3.15 C 76.954 3.158 76.95 3.163 76.946 3.171 L 76.895 3.133 C 76.866 3.117 76.841 3.1 76.812 3.083 C 76.803 3.071 76.795 3.058 76.782 3.045 C 76.77 3.041 76.762 3.041 76.749 3.037 C 76.749 3.029 76.753 3.025 76.753 3.016 C 76.728 3.004 76.703 2.987 76.678 2.974 C 76.674 2.962 76.674 2.949 76.669 2.937 C 76.653 2.92 76.632 2.907 76.615 2.891 C 76.594 2.895 76.573 2.895 76.556 2.899 C 76.54 2.907 76.527 2.916 76.51 2.924 C 76.515 2.941 76.515 2.953 76.519 2.97 C 76.502 2.979 76.485 2.991 76.469 2.999 C 76.427 2.966 76.381 2.937 76.339 2.903 L 76.314 2.815 L 76.238 2.74 C 76.226 2.732 76.209 2.723 76.197 2.711 C 76.18 2.681 76.167 2.656 76.151 2.627 C 76.167 2.614 76.184 2.602 76.197 2.589 C 76.205 2.573 76.218 2.56 76.226 2.543 L 76.226 2.514 L 76.276 2.476 C 76.268 2.472 76.255 2.468 76.247 2.46 C 76.238 2.447 76.234 2.435 76.226 2.422 C 76.209 2.422 76.192 2.426 76.176 2.426 C 76.155 2.414 76.134 2.401 76.113 2.384 C 76.105 2.389 76.1 2.393 76.092 2.397 C 76.092 2.384 76.088 2.376 76.088 2.363 C 76.079 2.368 76.067 2.368 76.059 2.372 C 76.021 2.355 75.987 2.338 75.95 2.322 C 75.937 2.326 75.929 2.326 75.916 2.33 C 75.9 2.317 75.883 2.309 75.862 2.296 C 75.828 2.301 75.799 2.309 75.766 2.313 C 75.749 2.309 75.732 2.305 75.72 2.301 C 75.707 2.305 75.699 2.313 75.686 2.317 L 75.649 2.317 C 75.644 2.309 75.644 2.301 75.64 2.292 C 75.628 2.292 75.619 2.296 75.607 2.296 C 75.598 2.292 75.59 2.284 75.582 2.28 C 75.573 2.28 75.569 2.276 75.561 2.276 C 75.556 2.267 75.552 2.259 75.544 2.25 L 75.544 2.225 C 75.54 2.225 75.536 2.221 75.527 2.221 C 75.515 2.225 75.506 2.234 75.494 2.238 L 75.431 2.301 C 75.397 2.305 75.368 2.313 75.335 2.317 L 75.285 2.33 C 75.268 2.347 75.251 2.363 75.238 2.38 C 75.23 2.397 75.222 2.418 75.213 2.435 C 75.209 2.451 75.209 2.464 75.205 2.481 C 75.18 2.497 75.155 2.514 75.134 2.531 C 75.088 2.548 75.046 2.56 75 2.577 C 74.971 2.589 74.941 2.606 74.912 2.619 C 74.87 2.661 74.824 2.698 74.782 2.74 C 74.757 2.761 74.732 2.778 74.707 2.799 C 74.699 2.815 74.69 2.828 74.678 2.845 C 74.682 2.861 74.682 2.878 74.686 2.895 C 74.678 2.903 74.674 2.916 74.665 2.924 L 74.653 2.999 C 74.628 3.041 74.603 3.083 74.582 3.125 C 74.561 3.146 74.54 3.167 74.515 3.188 C 74.506 3.234 74.502 3.28 74.494 3.326 C 74.502 3.343 74.51 3.355 74.519 3.372 L 74.544 3.485 L 74.544 3.652 C 74.556 3.681 74.565 3.707 74.577 3.736 C 74.59 3.761 74.607 3.79 74.619 3.815 C 74.636 3.849 74.653 3.882 74.669 3.92 C 74.707 3.916 74.745 3.916 74.787 3.912 C 74.808 3.924 74.833 3.937 74.854 3.953 C 74.862 3.962 74.87 3.974 74.879 3.983 C 74.879 3.983 74.987 3.983 74.996 3.987 C 75.004 3.991 75.096 4.016 75.096 4.016 C 75.13 4.012 75.163 4.012 75.192 4.008 C 75.213 4.02 75.23 4.037 75.251 4.05 C 75.251 4.05 75.276 4.108 75.272 4.112 C 75.268 4.117 75.255 4.133 75.255 4.133 C 75.264 4.15 75.268 4.167 75.276 4.184 C 75.314 4.192 75.347 4.204 75.385 4.213 C 75.393 4.242 75.397 4.276 75.406 4.305 C 75.377 4.351 75.347 4.397 75.318 4.439 L 75.268 4.502 L 75.331 4.652 C 75.331 4.652 75.347 4.732 75.343 4.74 C 75.343 4.748 75.339 4.92 75.339 4.92 C 75.331 4.928 75.322 4.932 75.318 4.941 C 75.314 4.953 75.31 4.966 75.301 4.979 C 75.301 5.004 75.297 5.029 75.297 5.054 L 75.272 5.091 L 75.209 5.129 L 75.121 5.217 C 75.113 5.246 75.105 5.271 75.096 5.301 C 75.105 5.322 75.117 5.343 75.126 5.363 C 75.126 5.38 75.121 5.401 75.121 5.418 C 75.126 5.455 75.134 5.489 75.138 5.527 C 75.121 5.589 75.1 5.652 75.084 5.715 L 75.084 5.79 C 75.092 5.799 75.1 5.807 75.105 5.82 C 75.109 5.849 75.109 5.878 75.113 5.903 C 75.117 5.937 75.117 5.97 75.121 6.008 C 75.121 6.008 75.079 6.029 75.079 6.033 C 75.079 6.037 75.071 6.096 75.071 6.096 C 75.088 6.112 75.109 6.125 75.126 6.142 C 75.155 6.146 75.18 6.15 75.209 6.154 C 75.243 6.163 75.272 6.171 75.305 6.179 C 75.326 6.192 75.347 6.2 75.368 6.213 L 75.502 6.213 C 75.573 6.184 75.64 6.154 75.711 6.125 C 75.724 6.125 75.732 6.121 75.745 6.121 L 75.82 6.02 C 75.82 6.016 75.816 6.012 75.816 6.004 C 75.837 5.999 75.858 5.995 75.879 5.995 L 75.962 5.995 L 76 5.895 C 76.004 5.857 76.004 5.82 76.008 5.782 C 76.033 5.778 76.054 5.769 76.079 5.765 C 76.088 5.757 76.1 5.748 76.109 5.74 C 76.126 5.744 76.138 5.748 76.155 5.753 C 76.201 5.748 76.247 5.748 76.289 5.744 L 76.351 5.694 C 76.381 5.627 76.414 5.56 76.444 5.493 L 76.418 5.443 L 76.431 5.368 C 76.444 5.355 76.46 5.343 76.473 5.33 C 76.464 5.313 76.46 5.297 76.452 5.276 C 76.473 5.25 76.494 5.23 76.519 5.204 C 76.536 5.188 76.556 5.171 76.573 5.154 C 76.598 5.15 76.623 5.146 76.653 5.142 C 76.682 5.121 76.715 5.096 76.745 5.075 C 76.833 5.05 76.921 5.02 77.008 4.995 C 77.013 4.987 77.021 4.979 77.025 4.97 C 77.038 4.97 77.046 4.97 77.059 4.966 L 77.146 4.891 C 77.172 4.861 77.192 4.836 77.218 4.807 C 77.251 4.773 77.285 4.744 77.318 4.711 C 77.335 4.681 77.356 4.648 77.372 4.619 C 77.343 4.619 77.318 4.623 77.289 4.623 C 77.276 4.614 77.259 4.606 77.247 4.602 C 77.213 4.602 77.18 4.606 77.142 4.606 C 77.138 4.598 77.13 4.594 77.126 4.585 C 77.1 4.581 77.079 4.581 77.054 4.577 C 77.042 4.543 77.029 4.514 77.017 4.481 C 77.025 4.476 77.038 4.472 77.046 4.468 C 77.05 4.455 77.05 4.447 77.054 4.435 L 77.029 4.372 C 77.025 4.338 77.021 4.309 77.017 4.276 C 77 4.246 76.983 4.217 76.962 4.188 C 76.971 4.142 76.979 4.096 76.992 4.045 C 76.983 4.008 76.971 3.974 76.962 3.937 C 76.975 3.907 76.987 3.882 77.004 3.853 C 77.008 3.828 77.008 3.799 77.013 3.773 C 77.004 3.748 76.996 3.723 76.983 3.698 C 76.987 3.677 76.992 3.656 77 3.64 C 77 3.606 76.996 3.573 76.996 3.539 L 76.996 3.435 C 76.996 3.418 76.996 3.397 77 3.38 C 77 3.38 77.004 3.296 77.004 3.288 C 77.004 3.301 77.017 3.405 77.017 3.405 C 77.029 3.405 77.042 3.401 77.059 3.401 C 77.071 3.409 77.079 3.418 77.092 3.426 C 77.096 3.476 77.105 3.531 77.109 3.581 C 77.109 3.606 77.105 3.631 77.105 3.656 C 77.113 3.686 77.121 3.711 77.126 3.74 C 77.113 3.769 77.1 3.799 77.092 3.828 L 77.079 3.928 C 77.092 3.958 77.105 3.987 77.117 4.02 C 77.117 4.05 77.113 4.079 77.113 4.108 C 77.117 4.129 77.121 4.154 77.126 4.175 C 77.126 4.175 77.096 4.296 77.092 4.301 C 77.088 4.305 77.067 4.405 77.067 4.405 C 77.071 4.414 77.075 4.422 77.079 4.435 C 77.1 4.443 77.121 4.447 77.138 4.455 C 77.146 4.447 77.159 4.443 77.167 4.435 C 77.184 4.443 77.201 4.447 77.218 4.455 C 77.238 4.455 77.255 4.451 77.276 4.451 C 77.293 4.455 77.305 4.46 77.322 4.46 C 77.347 4.455 77.372 4.447 77.397 4.443 C 77.435 4.439 77.473 4.435 77.515 4.435 L 77.54 4.397 C 77.586 4.397 77.628 4.401 77.674 4.401 C 77.682 4.393 77.69 4.38 77.703 4.372 C 77.72 4.376 77.736 4.384 77.753 4.389 C 77.762 4.376 77.766 4.368 77.774 4.355 C 77.795 4.359 77.82 4.363 77.841 4.368 C 77.849 4.351 77.854 4.33 77.862 4.313 C 77.879 4.301 77.895 4.292 77.912 4.28 C 77.941 4.255 77.971 4.225 77.996 4.2 C 77.992 4.192 77.992 4.184 77.987 4.175 L 77.987 4.133 C 77.987 4.133 77.967 4.091 77.962 4.091 C 77.954 4.091 77.933 4.058 77.933 4.058 C 77.925 4.033 77.92 4.008 77.912 3.983 L 77.937 3.92 L 77.92 3.92 L 77.9 3.941 C 77.879 3.949 77.862 3.962 77.841 3.97 C 77.82 3.974 77.803 3.979 77.782 3.979 C 77.77 3.966 77.757 3.958 77.745 3.945 L 77.711 3.945 C 77.703 3.937 77.695 3.924 77.686 3.916 C 77.695 3.907 77.703 3.895 77.711 3.886 C 77.715 3.866 77.724 3.849 77.728 3.828 C 77.72 3.836 77.707 3.845 77.699 3.849 C 77.69 3.849 77.678 3.849 77.669 3.845 C 77.678 3.82 77.69 3.799 77.699 3.773 C 77.69 3.757 77.678 3.74 77.669 3.723 C 77.674 3.715 77.674 3.711 77.678 3.702 L 77.665 3.665 C 77.661 3.635 77.661 3.606 77.657 3.573 C 77.665 3.56 77.669 3.548 77.678 3.539 L 77.695 3.556 C 77.695 3.543 77.699 3.531 77.699 3.518 L 77.711 3.543 L 77.728 3.543 C 77.736 3.552 77.741 3.56 77.749 3.568 L 77.77 3.568 C 77.774 3.585 77.774 3.602 77.778 3.619 C 77.774 3.627 77.77 3.64 77.766 3.648 C 77.778 3.702 77.791 3.757 77.799 3.807 C 77.82 3.828 77.837 3.849 77.858 3.866 C 77.887 3.866 77.912 3.866 77.941 3.861 C 77.95 3.857 77.958 3.857 77.967 3.853 C 77.971 3.87 77.975 3.882 77.979 3.899 C 77.979 3.912 77.975 3.928 77.975 3.941 C 77.979 3.958 77.987 3.974 77.992 3.987 C 78.008 3.995 78.021 3.999 78.038 4.008 C 78.054 4.016 78.075 4.025 78.092 4.033 L 78.117 4.071 L 78.167 4.071 C 78.176 4.079 78.184 4.083 78.192 4.091 C 78.243 4.104 78.289 4.117 78.339 4.133 C 78.335 4.146 78.335 4.163 78.331 4.175 C 78.339 4.184 78.343 4.196 78.351 4.204 C 78.351 4.217 78.356 4.23 78.356 4.242 C 78.368 4.255 78.381 4.263 78.393 4.276 C 78.385 4.288 78.381 4.301 78.372 4.313 C 78.377 4.322 78.385 4.33 78.389 4.338 C 78.402 4.343 78.418 4.347 78.431 4.351 C 78.444 4.347 78.456 4.343 78.473 4.343 C 78.477 4.347 78.477 4.351 78.481 4.355 C 78.469 4.363 78.452 4.368 78.439 4.376 C 78.414 4.372 78.385 4.372 78.356 4.368 L 78.381 4.443 C 78.385 4.455 78.385 4.472 78.389 4.485 C 78.402 4.489 78.414 4.489 78.427 4.493 C 78.444 4.485 78.46 4.481 78.473 4.472 C 78.485 4.455 78.494 4.439 78.506 4.422 C 78.515 4.422 78.498 4.485 78.498 4.485 L 78.498 4.514 C 78.481 4.535 78.464 4.552 78.448 4.573 L 78.448 4.627 C 78.435 4.665 78.418 4.698 78.406 4.736 C 78.397 4.807 78.389 4.878 78.381 4.945 C 78.377 4.962 78.372 4.979 78.364 4.991 L 78.364 5.142 C 78.36 5.146 78.351 5.15 78.347 5.158 C 78.351 5.188 78.356 5.221 78.36 5.25 C 78.372 5.255 78.381 5.255 78.393 5.259 L 78.418 5.234 C 78.439 5.217 78.46 5.204 78.477 5.188 C 78.485 5.188 78.494 5.192 78.502 5.192 C 78.506 5.179 78.51 5.163 78.515 5.15 C 78.531 5.129 78.552 5.108 78.569 5.087 C 78.577 5.062 78.59 5.037 78.598 5.012 C 78.611 4.995 78.619 4.979 78.632 4.962 L 78.644 4.924 C 78.657 4.92 78.665 4.916 78.678 4.912 C 78.695 4.907 78.711 4.907 78.728 4.903 C 78.741 4.899 78.753 4.899 78.766 4.895 C 78.774 4.886 78.778 4.878 78.787 4.87 C 78.803 4.87 78.82 4.87 78.833 4.874 L 78.933 4.824 C 78.941 4.815 78.95 4.811 78.958 4.803 C 78.967 4.807 78.975 4.811 78.987 4.815 C 79.004 4.807 79.025 4.799 79.042 4.786 C 79.05 4.773 79.063 4.757 79.071 4.744 C 79.088 4.744 79.105 4.74 79.117 4.74 L 79.117 4.765 C 79.138 4.761 79.159 4.761 79.18 4.757 C 79.184 4.761 79.188 4.765 79.188 4.769 C 79.197 4.761 79.205 4.748 79.213 4.74 C 79.213 4.74 79.234 4.698 79.234 4.707 C 79.234 4.715 79.255 4.74 79.255 4.74 C 79.251 4.769 79.247 4.794 79.238 4.824 C 79.238 4.849 79.238 4.87 79.234 4.895 C 79.247 4.899 79.259 4.899 79.272 4.903 C 79.268 4.928 79.259 4.953 79.255 4.979 C 79.251 4.987 79.247 4.999 79.243 5.008 C 79.243 5.012 79.247 5.02 79.247 5.025 C 79.243 5.037 79.234 5.05 79.23 5.062 C 79.222 5.075 79.213 5.087 79.201 5.096 C 79.197 5.104 79.192 5.112 79.192 5.117 C 79.197 5.125 79.201 5.133 79.205 5.146 C 79.218 5.146 79.226 5.15 79.238 5.15 C 79.255 5.142 79.272 5.137 79.285 5.129 C 79.285 5.129 79.305 5.1 79.305 5.104 C 79.305 5.112 79.326 5.154 79.326 5.154 L 79.314 5.192 C 79.305 5.221 79.301 5.255 79.293 5.284 C 79.293 5.292 79.297 5.301 79.297 5.313 C 79.293 5.33 79.285 5.351 79.28 5.368 C 79.276 5.372 79.272 5.376 79.268 5.384 C 79.264 5.401 79.264 5.422 79.259 5.439 C 79.251 5.447 79.247 5.455 79.238 5.464 L 79.226 5.476 L 79.226 5.493 L 79.209 5.51 L 79.176 5.543 C 79.18 5.56 79.18 5.581 79.184 5.598 C 79.188 5.614 79.197 5.635 79.201 5.652 L 79.176 5.727 C 79.172 5.744 79.163 5.757 79.159 5.773 C 79.155 5.79 79.151 5.807 79.151 5.824 L 79.151 5.853 C 79.146 5.861 79.142 5.87 79.142 5.882 C 79.155 5.912 79.163 5.937 79.176 5.966 C 79.176 5.966 79.23 5.903 79.234 5.899 C 79.268 5.84 79.226 5.92 79.226 5.92 L 79.23 5.895 C 79.23 5.895 79.272 5.82 79.276 5.815 L 79.276 5.748 C 79.272 5.727 79.268 5.707 79.259 5.681 C 79.251 5.665 79.247 5.648 79.238 5.635 C 79.238 5.623 79.243 5.606 79.243 5.594 C 79.243 5.577 79.243 5.56 79.238 5.548 C 79.251 5.531 79.264 5.518 79.28 5.502 C 79.305 5.464 79.326 5.426 79.351 5.389 C 79.36 5.38 79.364 5.372 79.372 5.363 C 79.377 5.368 79.385 5.372 79.389 5.376 L 79.377 5.414 C 79.385 5.418 79.393 5.418 79.406 5.422 C 79.406 5.435 79.402 5.447 79.402 5.46 C 79.406 5.468 79.41 5.472 79.414 5.481 C 79.414 5.502 79.41 5.518 79.41 5.539 C 79.414 5.543 79.423 5.548 79.427 5.552 C 79.427 5.556 79.423 5.564 79.423 5.568 C 79.431 5.568 79.435 5.573 79.444 5.573 C 79.444 5.585 79.439 5.598 79.439 5.606 C 79.431 5.614 79.423 5.623 79.418 5.631 C 79.414 5.64 79.414 5.652 79.41 5.661 C 79.41 5.661 79.389 5.686 79.397 5.681 C 79.406 5.677 79.452 5.652 79.452 5.652 L 79.46 5.661 L 79.473 5.61 C 79.477 5.619 79.477 5.627 79.481 5.64 L 79.498 5.64 C 79.498 5.631 79.494 5.623 79.494 5.614 C 79.494 5.606 79.49 5.598 79.49 5.585 C 79.498 5.594 79.506 5.602 79.515 5.614 L 79.531 5.614 C 79.582 5.548 79.628 5.481 79.674 5.409 C 79.674 5.393 79.707 5.38 79.707 5.363 C 79.707 5.355 79.711 5.347 79.711 5.338 C 79.707 5.33 79.707 5.326 79.703 5.317 L 79.703 5.288 C 79.699 5.276 79.69 5.263 79.686 5.246 C 79.686 5.238 79.69 5.23 79.69 5.221 C 79.686 5.209 79.686 5.192 79.682 5.179 C 79.69 5.171 79.695 5.163 79.703 5.154 L 79.715 5.129 C 79.724 5.125 79.736 5.125 79.745 5.121 C 79.762 5.108 79.778 5.096 79.791 5.087 C 79.799 5.087 79.812 5.087 79.82 5.091 C 79.833 5.083 79.845 5.079 79.858 5.071 C 79.866 5.075 79.874 5.079 79.887 5.083 C 79.891 5.087 79.862 5.008 79.866 5.012 C 79.895 4.958 79.925 4.995 79.946 4.937 C 80.41 3.853 80.276 2.648 79.653 1.748 C 79.649 1.748 79.644 1.753 79.64 1.753 C 79.636 1.757 79.628 1.761 79.623 1.765 C 79.603 1.761 79.586 1.761 79.565 1.757 C 79.573 1.765 79.577 1.773 79.586 1.778 C 79.582 1.794 79.582 1.807 79.577 1.824 C 79.573 1.82 79.565 1.815 79.561 1.815 C 79.556 1.803 79.556 1.786 79.552 1.773 C 79.544 1.765 79.531 1.761 79.523 1.753 L 79.498 1.753 C 79.485 1.736 79.473 1.723 79.46 1.707 C 79.464 1.702 79.464 1.694 79.469 1.69 C 79.481 1.694 79.494 1.702 79.502 1.707 C 79.506 1.711 79.51 1.719 79.515 1.723 C 79.523 1.723 79.531 1.727 79.544 1.727 C 79.552 1.723 79.556 1.719 79.565 1.715 C 79.569 1.719 79.573 1.727 79.577 1.732 C 79.59 1.727 79.598 1.723 79.611 1.719 C 79.619 1.719 79.623 1.715 79.632 1.715 C 79.582 1.644 79.523 1.573 79.464 1.502 C 79.464 1.51 79.464 1.518 79.46 1.527 C 79.448 1.527 79.456 1.531 79.464 1.535 L 79.464 1.535 Z  M 75.745 1.213 C 75.753 1.221 75.757 1.234 75.766 1.242 L 75.791 1.267 C 75.812 1.263 75.837 1.259 75.858 1.259 C 75.879 1.255 75.904 1.25 75.925 1.242 C 75.933 1.225 75.941 1.213 75.946 1.196 C 75.941 1.188 75.941 1.184 75.937 1.175 C 75.937 1.175 75.983 1.158 76.008 1.142 C 76.004 1.129 75.996 1.121 75.992 1.108 C 75.992 1.104 75.996 1.096 75.996 1.091 C 75.983 1.083 75.967 1.071 75.954 1.062 C 75.954 1.066 75.95 1.075 75.95 1.079 C 75.933 1.091 75.921 1.104 75.904 1.117 C 75.887 1.108 75.874 1.1 75.858 1.091 C 75.854 1.1 75.849 1.112 75.841 1.121 C 75.824 1.125 75.808 1.133 75.791 1.137 C 75.803 1.146 75.816 1.158 75.828 1.167 C 75.82 1.179 75.816 1.192 75.808 1.204 C 75.787 1.204 75.766 1.209 75.745 1.213 L 75.745 1.213 Z " fill="rgb(84,158,209)"/><path d=" M 76.067 1.255 C 76.063 1.246 76.054 1.238 76.05 1.23 C 76.038 1.225 76.025 1.225 76.017 1.221 C 76.021 1.234 76.029 1.242 76.033 1.255 C 76.021 1.259 76.004 1.259 75.992 1.263 C 76 1.267 76.008 1.271 76.017 1.28 L 76.004 1.305 C 75.992 1.305 75.975 1.305 75.962 1.301 C 75.962 1.309 75.958 1.313 75.958 1.322 C 75.971 1.33 75.983 1.334 75.996 1.343 C 76.008 1.347 76.021 1.347 76.029 1.351 C 76.038 1.355 76.046 1.359 76.054 1.359 C 76.046 1.368 76.038 1.376 76.025 1.384 C 76.004 1.372 75.983 1.359 75.967 1.347 C 75.937 1.359 75.904 1.376 75.874 1.389 L 75.874 1.422 C 75.895 1.414 75.912 1.409 75.933 1.401 C 75.95 1.409 75.971 1.414 75.987 1.422 C 76 1.418 76.013 1.418 76.025 1.414 C 76.038 1.422 76.05 1.426 76.063 1.435 C 76.079 1.43 76.096 1.422 76.113 1.418 C 76.126 1.422 76.142 1.43 76.155 1.435 C 76.172 1.435 76.188 1.439 76.201 1.439 L 76.201 1.418 C 76.218 1.418 76.234 1.418 76.255 1.422 L 76.268 1.372 L 76.243 1.347 C 76.234 1.338 76.226 1.33 76.213 1.322 L 76.238 1.309 C 76.23 1.301 76.222 1.288 76.213 1.28 C 76.213 1.263 76.218 1.246 76.218 1.23 C 76.209 1.213 76.201 1.192 76.197 1.175 L 76.184 1.125 L 76.159 1.087 C 76.172 1.083 76.18 1.079 76.192 1.075 C 76.201 1.062 76.209 1.054 76.218 1.041 C 76.226 1.033 76.234 1.02 76.243 1.012 C 76.23 1.004 76.218 0.995 76.205 0.991 C 76.197 0.983 76.184 0.974 76.176 0.966 C 76.188 0.962 76.205 0.958 76.218 0.949 L 76.218 0.912 L 76.155 0.912 C 76.138 0.924 76.121 0.941 76.105 0.953 C 76.105 0.953 76.1 0.979 76.084 0.974 C 76.075 0.966 76.067 0.953 76.059 0.945 C 76.059 0.945 76.054 0.979 76.063 1.008 C 76.067 1.016 76.067 1.029 76.071 1.037 L 76.042 1.037 C 76.054 1.045 76.063 1.05 76.075 1.058 C 76.071 1.066 76.063 1.075 76.059 1.083 C 76.054 1.1 76.046 1.117 76.042 1.133 L 76.088 1.133 C 76.096 1.142 76.105 1.15 76.113 1.163 C 76.105 1.167 76.1 1.171 76.092 1.175 C 76.1 1.184 76.105 1.192 76.113 1.2 C 76.109 1.213 76.109 1.225 76.105 1.238 C 76.096 1.246 76.084 1.25 76.067 1.255 L 76.067 1.255 Z  M 76.113 0.895 C 76.109 0.882 76.1 0.874 76.096 0.861 C 76.088 0.87 76.075 0.878 76.067 0.891 C 76.071 0.899 76.079 0.903 76.084 0.912 C 76.092 0.907 76.1 0.899 76.113 0.895 L 76.113 0.895 Z  M 76.393 0.886 C 76.389 0.874 76.385 0.857 76.381 0.845 C 76.377 0.849 76.368 0.853 76.364 0.861 C 76.356 0.87 76.364 0.895 76.364 0.895 C 76.372 0.891 76.385 0.886 76.393 0.886 Z  M 76 2.133 C 75.996 2.138 75.996 2.146 75.992 2.15 C 75.983 2.158 75.979 2.167 75.971 2.175 C 75.967 2.184 75.962 2.188 75.958 2.196 C 75.975 2.192 75.987 2.188 76.004 2.184 C 76.017 2.171 76 2.133 76 2.133 Z  M 76.314 2.138 C 76.322 2.117 76.326 2.096 76.335 2.079 C 76.326 2.083 76.318 2.091 76.305 2.096 C 76.293 2.1 76.28 2.104 76.272 2.104 L 76.259 2.142 C 76.259 2.146 76.255 2.154 76.255 2.158 C 76.264 2.163 76.272 2.167 76.28 2.175 C 76.289 2.163 76.301 2.15 76.314 2.138 L 76.314 2.138 Z  M 76.079 2.188 L 76.046 2.188 C 76.054 2.196 76.063 2.2 76.071 2.209 C 76.075 2.2 76.075 2.192 76.079 2.188 Z  M 75.891 2.158 L 75.874 2.175 C 75.874 2.175 75.9 2.175 75.916 2.163 C 75.908 2.163 75.9 2.158 75.891 2.158 Z  M 76.251 2.288 C 76.259 2.276 76.272 2.259 76.28 2.246 C 76.28 2.246 76.36 2.192 76.28 2.209 C 76.201 2.225 76.264 2.175 76.23 2.204 L 76.201 2.225 L 76.201 2.276 C 76.197 2.288 76.188 2.305 76.184 2.317 C 76.197 2.317 76.205 2.322 76.218 2.322 C 76.23 2.309 76.238 2.296 76.251 2.288 Z  M 76.339 2.51 C 76.36 2.531 76.377 2.552 76.397 2.577 C 76.406 2.56 76.418 2.543 76.427 2.531 L 76.439 2.493 C 76.423 2.485 76.406 2.481 76.393 2.472 C 76.377 2.464 76.36 2.451 76.347 2.443 L 76.326 2.455 C 76.326 2.472 76.331 2.489 76.339 2.51 Z  M 76.816 2.891 C 76.828 2.899 76.858 2.878 76.858 2.878 C 76.849 2.87 76.837 2.861 76.828 2.849 C 76.816 2.845 76.803 2.836 76.791 2.832 C 76.778 2.824 76.77 2.811 76.757 2.803 L 76.72 2.79 C 76.732 2.807 76.749 2.824 76.762 2.836 C 76.762 2.84 76.803 2.878 76.816 2.891 L 76.816 2.891 Z  M 77.18 3.033 C 77.192 3.025 77.205 3.012 77.218 3.004 C 77.201 2.999 77.18 2.995 77.163 2.991 C 77.142 2.995 77.121 2.999 77.105 2.999 C 77.117 3.012 77.126 3.025 77.138 3.041 C 77.151 3.037 77.167 3.033 77.18 3.033 L 77.18 3.033 Z  M 76.736 1.343 C 76.741 1.359 76.745 1.389 76.745 1.389 C 76.753 1.397 76.766 1.405 76.774 1.414 L 76.795 1.393 C 76.799 1.376 76.803 1.363 76.812 1.347 C 76.787 1.338 76.736 1.343 76.736 1.343 Z  M 77.163 1.359 C 77.155 1.355 77.151 1.355 77.142 1.351 C 77.126 1.355 77.109 1.363 77.096 1.368 C 77.096 1.376 77.092 1.389 77.092 1.397 C 77.105 1.397 77.113 1.393 77.126 1.393 C 77.138 1.38 77.151 1.372 77.163 1.359 L 77.163 1.359 Z  M 77.339 1.363 C 77.331 1.363 77.326 1.368 77.318 1.368 C 77.305 1.363 77.293 1.359 77.285 1.359 C 77.285 1.368 77.28 1.38 77.28 1.389 C 77.293 1.393 77.31 1.393 77.322 1.397 C 77.326 1.384 77.335 1.376 77.339 1.363 L 77.339 1.363 Z  M 77.351 0.635 L 77.372 0.614 C 77.36 0.606 77.347 0.602 77.335 0.594 C 77.322 0.602 77.314 0.61 77.301 0.614 C 77.305 0.623 77.31 0.627 77.31 0.635 C 77.322 0.64 77.335 0.64 77.351 0.635 L 77.351 0.635 Z  M 77.435 0.577 C 77.435 0.577 77.406 0.589 77.393 0.598 C 77.41 0.602 77.423 0.606 77.439 0.61 C 77.444 0.606 77.448 0.598 77.456 0.594 C 77.448 0.585 77.444 0.581 77.435 0.577 Z  M 77.552 0.568 C 77.544 0.564 77.536 0.556 77.527 0.552 L 77.502 0.564 C 77.498 0.564 77.536 0.568 77.552 0.568 Z  M 77.686 0.577 C 77.686 0.568 77.69 0.56 77.69 0.552 C 77.674 0.552 77.661 0.548 77.644 0.548 C 77.636 0.552 77.628 0.556 77.619 0.556 C 77.628 0.56 77.632 0.568 77.64 0.573 C 77.657 0.573 77.669 0.573 77.686 0.577 L 77.686 0.577 Z  M 78.854 0.995 C 78.862 1.008 78.874 1.025 78.883 1.037 C 78.895 1.037 78.908 1.033 78.921 1.033 C 78.925 1.05 78.929 1.066 78.929 1.083 C 78.921 1.087 78.912 1.091 78.9 1.096 C 78.916 1.117 78.929 1.137 78.946 1.158 C 78.962 1.163 78.979 1.171 78.996 1.175 C 79.025 1.179 79.054 1.179 79.084 1.184 C 79.067 1.158 79.054 1.137 79.038 1.112 L 79.038 1.096 C 78.983 1.05 78.929 1.008 78.87 0.966 C 78.866 0.97 78.862 0.979 78.858 0.983 C 78.862 0.991 78.858 0.995 78.854 0.995 L 78.854 0.995 Z  M 79.163 1.305 L 79.163 1.284 C 79.151 1.271 79.142 1.259 79.13 1.246 L 79.109 1.225 C 79.105 1.238 79.1 1.246 79.096 1.259 C 79.105 1.271 79.117 1.28 79.126 1.292 C 79.142 1.297 79.155 1.301 79.163 1.305 Z  M 78.736 1.158 C 78.741 1.15 78.745 1.137 78.749 1.129 C 78.736 1.121 78.724 1.108 78.711 1.1 C 78.703 1.112 78.699 1.121 78.69 1.133 C 78.699 1.146 78.703 1.154 78.711 1.167 C 78.72 1.167 78.728 1.163 78.736 1.158 Z  M 79.791 5.184 C 79.782 5.188 79.778 5.192 79.77 5.2 C 79.774 5.209 79.778 5.221 79.782 5.23 C 79.787 5.238 79.787 5.175 79.791 5.184 C 79.803 5.163 79.808 5.179 79.816 5.158 C 79.816 5.158 79.782 5.158 79.791 5.184 C 79.778 5.184 79.803 5.184 79.791 5.184 Z  M 78.494 5.259 C 78.477 5.242 78.456 5.271 78.456 5.271 C 78.452 5.28 78.452 5.288 78.448 5.297 L 78.423 5.322 C 78.418 5.343 78.414 5.363 78.406 5.384 C 78.406 5.384 78.414 5.418 78.427 5.422 C 78.439 5.426 78.473 5.414 78.473 5.414 C 78.485 5.401 78.494 5.389 78.506 5.376 C 78.506 5.359 78.502 5.343 78.502 5.326 C 78.498 5.301 78.494 5.28 78.494 5.259 L 78.494 5.259 Z  M 76.732 5.727 C 76.72 5.744 76.707 5.761 76.69 5.782 C 76.678 5.79 76.661 5.794 76.649 5.803 C 76.636 5.807 76.628 5.815 76.615 5.82 C 76.607 5.824 76.603 5.828 76.594 5.828 C 76.577 5.82 76.561 5.815 76.544 5.807 C 76.527 5.811 76.515 5.815 76.498 5.815 C 76.477 5.82 76.46 5.828 76.439 5.832 C 76.431 5.836 76.418 5.84 76.41 5.845 C 76.406 5.861 76.397 5.878 76.393 5.891 C 76.402 5.907 76.41 5.928 76.418 5.945 C 76.406 5.949 76.397 5.949 76.385 5.953 C 76.368 5.966 76.347 5.974 76.331 5.987 C 76.314 6.004 76.297 6.025 76.28 6.041 C 76.285 6.058 76.293 6.075 76.297 6.091 C 76.297 6.112 76.293 6.133 76.293 6.154 C 76.305 6.167 76.314 6.184 76.326 6.196 L 76.393 6.196 C 76.414 6.184 76.439 6.167 76.464 6.154 C 76.49 6.125 76.51 6.096 76.536 6.066 C 76.552 6.054 76.573 6.045 76.59 6.033 C 76.611 6.008 76.636 5.987 76.657 5.962 C 76.669 5.949 76.678 5.937 76.69 5.924 C 76.69 5.924 76.703 5.874 76.711 5.866 C 76.715 5.853 76.72 5.899 76.72 5.899 C 76.732 5.891 76.745 5.882 76.753 5.878 C 76.753 5.878 76.762 5.824 76.757 5.807 C 76.753 5.79 76.766 5.74 76.766 5.74 C 76.753 5.74 76.745 5.732 76.732 5.727 L 76.732 5.727 Z  M 79.134 5.995 C 79.126 5.974 79.117 5.949 79.105 5.928 L 79.105 5.849 C 79.096 5.807 79.088 5.765 79.079 5.727 C 79.067 5.715 79.059 5.702 79.046 5.69 C 79.038 5.681 79.025 5.677 79.017 5.669 C 79.008 5.665 78.996 5.656 78.987 5.652 C 78.979 5.673 78.967 5.69 78.958 5.711 C 78.962 5.727 78.962 5.748 78.967 5.765 C 78.975 5.782 78.983 5.799 78.987 5.815 C 78.992 5.836 79 5.857 79.004 5.878 C 79 5.899 78.992 5.916 78.987 5.937 C 78.996 5.949 79.004 5.958 79.013 5.97 C 79.008 5.999 79 6.029 78.996 6.058 C 79 6.091 78.967 6.125 78.975 6.154 C 78.975 6.167 78.975 6.154 79 6.137 C 79.046 6.1 79.079 6.071 79.126 6.029 C 79.13 6.008 79.13 6.004 79.134 5.995 C 79.121 5.987 79.142 6.004 79.134 5.995 L 79.134 5.995 Z " fill="rgb(84,158,209)"/><path d=" M 79.569 1.715 C 79.565 1.711 79.561 1.702 79.556 1.698 C 79.548 1.702 79.544 1.707 79.536 1.711 C 79.527 1.711 79.519 1.707 79.51 1.707 C 79.506 1.702 79.502 1.694 79.498 1.69 C 79.485 1.686 79.477 1.677 79.464 1.673 C 79.464 1.677 79.46 1.686 79.46 1.69 C 79.473 1.702 79.485 1.719 79.498 1.732 L 79.523 1.732 C 79.531 1.74 79.544 1.744 79.552 1.753 C 79.556 1.765 79.556 1.782 79.561 1.794 C 79.565 1.799 79.573 1.803 79.577 1.803 C 79.582 1.79 79.582 1.773 79.586 1.761 C 79.582 1.753 79.573 1.744 79.569 1.74 C 79.59 1.744 79.607 1.744 79.628 1.748 C 79.632 1.744 79.64 1.74 79.644 1.736 C 79.649 1.736 79.653 1.732 79.657 1.732 L 79.632 1.694 C 79.623 1.694 79.619 1.698 79.611 1.698 C 79.59 1.702 79.577 1.707 79.569 1.715 Z  M 79.849 5.008 C 79.837 5.016 79.824 5.02 79.812 5.029 C 79.803 5.029 79.791 5.029 79.782 5.025 C 79.766 5.037 79.753 5.045 79.736 5.058 C 79.728 5.062 79.72 5.062 79.707 5.066 L 79.695 5.091 C 79.686 5.1 79.682 5.108 79.674 5.117 C 79.678 5.129 79.678 5.142 79.682 5.158 C 79.682 5.167 79.678 5.175 79.678 5.184 C 79.682 5.196 79.69 5.209 79.695 5.225 L 79.695 5.255 C 79.699 5.263 79.699 5.267 79.703 5.276 C 79.703 5.284 79.699 5.292 79.699 5.301 L 79.699 5.347 C 79.732 5.297 79.762 5.246 79.791 5.192 L 79.778 5.167 C 79.774 5.158 79.77 5.15 79.766 5.137 C 79.774 5.133 79.778 5.129 79.787 5.121 L 79.828 5.121 L 79.854 5.071 C 79.854 5.066 79.854 5.062 79.849 5.058 L 79.866 5.041 C 79.87 5.033 79.874 5.029 79.879 5.02 C 79.874 5.016 79.874 5.012 79.87 5.012 C 79.866 5.016 79.858 5.012 79.849 5.008 L 79.849 5.008 Z  M 79.862 5.079 C 79.866 5.071 79.87 5.062 79.874 5.05 L 79.858 5.066 C 79.858 5.071 79.858 5.075 79.862 5.079 Z " fill="rgb(91,160,2)"/><path d=" M 79.473 1.522 C 79.456 1.535 79.439 1.548 79.427 1.56 C 79.418 1.535 79.41 1.51 79.397 1.485 L 79.347 1.422 C 79.347 1.422 79.322 1.439 79.326 1.435 C 79.326 1.43 79.343 1.393 79.343 1.393 L 79.305 1.368 C 79.301 1.355 79.293 1.347 79.289 1.334 L 79.264 1.322 C 79.264 1.33 79.259 1.338 79.259 1.343 C 79.243 1.33 79.226 1.317 79.209 1.309 L 79.197 1.322 C 79.188 1.317 79.18 1.313 79.167 1.309 C 79.167 1.322 79.172 1.33 79.172 1.343 C 79.167 1.355 79.163 1.372 79.163 1.384 C 79.155 1.384 79.142 1.38 79.134 1.38 C 79.134 1.376 79.13 1.372 79.13 1.363 L 79.117 1.363 C 79.113 1.372 79.109 1.38 79.109 1.389 C 79.1 1.376 79.096 1.363 79.088 1.351 L 79.113 1.326 C 79.092 1.326 79.067 1.322 79.046 1.322 C 79.042 1.326 79.033 1.33 79.029 1.334 L 79.013 1.317 C 79.013 1.313 79.017 1.305 79.017 1.301 C 79.004 1.297 78.992 1.288 78.979 1.284 C 78.962 1.284 78.946 1.28 78.925 1.28 C 78.929 1.288 78.929 1.297 78.933 1.301 L 78.916 1.301 C 78.916 1.292 78.916 1.284 78.912 1.276 C 78.904 1.28 78.895 1.28 78.891 1.284 C 78.879 1.276 78.866 1.267 78.858 1.263 L 78.866 1.255 C 78.874 1.259 78.887 1.263 78.895 1.267 L 78.895 1.238 L 78.883 1.225 C 78.887 1.221 78.891 1.217 78.895 1.209 C 78.887 1.209 78.874 1.209 78.866 1.213 L 78.841 1.225 C 78.833 1.221 78.82 1.217 78.812 1.217 C 78.799 1.217 78.787 1.217 78.774 1.221 C 78.749 1.221 78.724 1.221 78.699 1.217 C 78.69 1.213 78.682 1.209 78.669 1.204 C 78.674 1.209 78.674 1.213 78.678 1.217 C 78.661 1.213 78.649 1.213 78.632 1.209 C 78.628 1.217 78.619 1.221 78.611 1.23 C 78.611 1.238 78.607 1.246 78.607 1.259 C 78.582 1.259 78.556 1.255 78.527 1.255 C 78.527 1.242 78.523 1.225 78.523 1.213 L 78.523 1.192 C 78.531 1.188 78.544 1.188 78.552 1.184 C 78.569 1.188 78.586 1.192 78.607 1.2 C 78.603 1.188 78.598 1.171 78.594 1.158 C 78.59 1.146 78.586 1.129 78.582 1.117 C 78.573 1.112 78.561 1.108 78.552 1.104 C 78.536 1.091 78.523 1.079 78.506 1.062 C 78.51 1.075 78.51 1.087 78.515 1.1 C 78.51 1.108 78.502 1.121 78.498 1.129 C 78.49 1.137 78.477 1.142 78.469 1.15 C 78.473 1.158 78.477 1.167 78.477 1.179 C 78.473 1.188 78.469 1.192 78.469 1.2 C 78.46 1.2 78.456 1.204 78.448 1.204 L 78.423 1.242 C 78.418 1.242 78.414 1.238 78.41 1.238 C 78.414 1.23 78.414 1.221 78.418 1.213 L 78.385 1.179 C 78.372 1.179 78.36 1.184 78.351 1.184 C 78.343 1.179 78.335 1.179 78.326 1.175 C 78.322 1.184 78.318 1.188 78.318 1.196 C 78.301 1.2 78.285 1.2 78.268 1.204 C 78.268 1.213 78.268 1.225 78.272 1.234 C 78.276 1.242 78.285 1.25 78.289 1.255 L 78.289 1.276 C 78.272 1.267 78.255 1.259 78.243 1.25 C 78.238 1.242 78.23 1.234 78.226 1.225 C 78.209 1.209 78.197 1.188 78.18 1.171 C 78.176 1.179 78.172 1.184 78.167 1.192 C 78.163 1.196 78.155 1.2 78.151 1.204 C 78.151 1.213 78.155 1.221 78.155 1.23 C 78.163 1.238 78.176 1.246 78.184 1.255 C 78.18 1.267 78.18 1.28 78.176 1.292 L 78.151 1.292 C 78.13 1.28 78.113 1.267 78.092 1.255 C 78.092 1.246 78.096 1.242 78.096 1.234 C 78.092 1.225 78.088 1.221 78.084 1.213 C 78.08 1.217 78.071 1.217 78.067 1.221 C 78.071 1.196 78.075 1.171 78.075 1.15 C 78.08 1.142 78.084 1.129 78.088 1.121 C 78.084 1.112 78.08 1.104 78.071 1.091 L 78.033 1.066 C 78.033 1.058 78.038 1.054 78.038 1.045 C 78.029 1.041 78.025 1.037 78.017 1.033 C 78.021 1.029 78.025 1.025 78.033 1.02 C 78.025 0.999 78.017 0.983 78.008 0.962 C 78.008 0.962 78.046 1.016 78.054 1.016 C 78.059 1.02 78.075 1.054 78.075 1.054 C 78.08 1.05 78.084 1.041 78.092 1.037 C 78.096 1.045 78.096 1.058 78.1 1.066 C 78.113 1.071 78.126 1.079 78.138 1.083 C 78.151 1.096 78.159 1.108 78.172 1.121 L 78.234 1.146 C 78.251 1.15 78.268 1.154 78.289 1.154 C 78.314 1.146 78.335 1.137 78.36 1.129 C 78.364 1.112 78.364 1.1 78.368 1.083 L 78.293 0.995 C 78.255 0.958 78.213 0.92 78.176 0.882 C 78.146 0.861 78.113 0.845 78.084 0.824 C 78.092 0.82 78.1 0.82 78.109 0.815 C 78.1 0.807 78.092 0.794 78.084 0.786 C 78.071 0.782 78.059 0.782 78.05 0.782 C 78.038 0.778 78.025 0.769 78.008 0.765 L 77.979 0.765 L 77.979 0.727 C 78.004 0.732 78.029 0.736 78.054 0.736 C 78.046 0.723 78.038 0.715 78.029 0.702 C 78.021 0.69 78.008 0.677 78 0.665 C 77.992 0.665 77.983 0.661 77.975 0.661 L 77.975 0.627 C 77.967 0.627 77.958 0.623 77.95 0.623 C 77.946 0.635 77.937 0.648 77.933 0.661 C 77.92 0.665 77.912 0.669 77.9 0.673 C 77.9 0.673 77.887 0.661 77.891 0.656 C 77.895 0.652 77.916 0.627 77.916 0.627 C 77.9 0.631 77.883 0.64 77.87 0.644 C 77.866 0.648 77.866 0.652 77.862 0.661 C 77.845 0.669 77.828 0.673 77.812 0.681 L 77.824 0.644 C 77.833 0.644 77.845 0.64 77.854 0.64 C 77.845 0.627 77.837 0.619 77.824 0.606 C 77.816 0.614 77.812 0.623 77.803 0.631 C 77.799 0.627 77.795 0.623 77.791 0.614 C 77.782 0.61 77.774 0.61 77.77 0.606 C 77.757 0.61 77.741 0.614 77.728 0.619 C 77.72 0.61 77.707 0.602 77.699 0.594 C 77.686 0.585 77.674 0.581 77.661 0.573 C 77.665 0.581 77.665 0.589 77.669 0.594 C 77.674 0.602 77.678 0.614 77.682 0.623 C 77.669 0.614 77.657 0.602 77.644 0.594 C 77.64 0.602 77.64 0.61 77.636 0.614 C 77.632 0.614 77.623 0.614 77.619 0.61 C 77.623 0.602 77.623 0.594 77.628 0.585 C 77.619 0.589 77.615 0.594 77.607 0.598 C 77.607 0.594 77.607 0.589 77.603 0.581 C 77.586 0.589 77.573 0.594 77.556 0.602 C 77.552 0.589 77.552 0.581 77.548 0.568 C 77.544 0.573 77.54 0.577 77.531 0.581 C 77.536 0.589 77.54 0.598 77.548 0.606 C 77.54 0.606 77.527 0.602 77.519 0.602 C 77.51 0.602 77.502 0.602 77.494 0.598 C 77.481 0.61 77.473 0.623 77.46 0.635 C 77.439 0.64 77.423 0.64 77.402 0.644 C 77.406 0.648 77.41 0.652 77.41 0.656 L 77.439 0.656 C 77.427 0.661 77.418 0.669 77.406 0.673 C 77.402 0.677 77.397 0.686 77.393 0.694 C 77.385 0.681 77.381 0.669 77.372 0.656 C 77.368 0.665 77.364 0.673 77.356 0.677 C 77.351 0.686 77.347 0.694 77.347 0.702 C 77.318 0.707 77.289 0.711 77.259 0.719 C 77.251 0.723 77.243 0.727 77.234 0.736 C 77.238 0.744 77.238 0.748 77.243 0.757 L 77.155 0.769 L 77.155 0.79 C 77.142 0.786 77.134 0.782 77.121 0.778 C 77.084 0.794 77.05 0.807 77.013 0.824 C 77.013 0.828 77.013 0.832 77.017 0.84 L 77.067 0.828 C 77.054 0.836 77.042 0.849 77.029 0.857 C 77 0.853 76.987 0.853 76.971 0.853 C 76.975 0.845 76.975 0.832 76.979 0.824 C 76.971 0.82 76.958 0.815 76.95 0.811 C 76.941 0.807 76.933 0.803 76.925 0.803 C 76.925 0.807 76.925 0.811 76.921 0.82 C 76.925 0.824 76.925 0.828 76.929 0.832 C 76.916 0.836 76.904 0.836 76.891 0.84 C 76.879 0.836 76.87 0.836 76.858 0.832 C 76.858 0.84 76.862 0.849 76.862 0.853 C 76.849 0.857 76.841 0.861 76.828 0.861 C 76.824 0.857 76.816 0.853 76.812 0.849 C 76.808 0.853 76.799 0.857 76.795 0.861 L 76.82 0.874 C 76.803 0.874 76.791 0.878 76.774 0.878 C 76.766 0.87 76.753 0.861 76.745 0.857 C 76.741 0.861 76.736 0.866 76.732 0.874 C 76.741 0.878 76.753 0.882 76.762 0.886 C 76.749 0.886 76.736 0.886 76.724 0.891 C 76.724 0.891 76.715 0.907 76.72 0.912 C 76.724 0.916 76.753 0.928 76.753 0.928 L 76.778 0.928 C 76.782 0.932 76.782 0.937 76.787 0.941 C 76.766 0.937 76.749 0.932 76.728 0.928 C 76.72 0.924 76.711 0.924 76.699 0.92 C 76.695 0.928 76.69 0.941 76.682 0.949 C 76.69 0.953 76.699 0.962 76.711 0.966 C 76.711 0.966 76.69 0.991 76.699 0.987 C 76.707 0.987 76.766 0.97 76.766 0.97 C 76.757 0.979 76.745 0.983 76.736 0.991 C 76.728 0.999 76.72 1.004 76.715 1.012 C 76.703 1.012 76.69 1.008 76.678 1.008 C 76.669 1.008 76.665 1.008 76.657 1.012 C 76.661 1.02 76.661 1.025 76.665 1.033 C 76.682 1.033 76.695 1.033 76.711 1.037 C 76.707 1.045 76.699 1.058 76.695 1.066 C 76.695 1.066 76.661 1.066 76.665 1.075 C 76.669 1.083 76.669 1.104 76.669 1.104 C 76.682 1.108 76.69 1.112 76.703 1.121 C 76.707 1.129 76.711 1.133 76.711 1.142 C 76.711 1.142 76.82 1.125 76.828 1.129 C 76.833 1.133 76.854 1.146 76.854 1.146 C 76.87 1.137 76.891 1.133 76.908 1.125 C 76.9 1.137 76.895 1.15 76.887 1.163 C 76.891 1.175 76.9 1.184 76.904 1.196 C 76.895 1.204 76.891 1.213 76.883 1.225 C 76.891 1.255 76.895 1.28 76.904 1.309 L 76.887 1.326 C 76.883 1.343 76.874 1.363 76.87 1.38 C 76.883 1.389 76.895 1.393 76.908 1.401 C 76.921 1.401 76.933 1.397 76.946 1.397 C 76.946 1.389 76.941 1.38 76.941 1.376 L 76.979 1.363 C 76.996 1.368 77.008 1.376 77.025 1.38 C 77.033 1.384 77.046 1.384 77.054 1.389 C 77.067 1.376 77.079 1.368 77.088 1.355 C 77.079 1.359 77.067 1.363 77.059 1.363 C 77.063 1.355 77.067 1.347 77.075 1.338 C 77.088 1.326 77.1 1.309 77.113 1.297 C 77.117 1.28 77.126 1.267 77.13 1.25 C 77.142 1.25 77.155 1.25 77.167 1.246 L 77.184 1.263 C 77.201 1.259 77.213 1.25 77.23 1.246 C 77.226 1.238 77.222 1.234 77.213 1.225 C 77.226 1.225 77.238 1.221 77.251 1.221 C 77.255 1.209 77.255 1.2 77.259 1.188 C 77.255 1.179 77.251 1.175 77.247 1.167 L 77.247 1.146 C 77.238 1.142 77.234 1.137 77.226 1.133 C 77.218 1.133 77.209 1.133 77.197 1.129 C 77.205 1.104 77.213 1.083 77.226 1.058 C 77.234 1.054 77.243 1.045 77.247 1.041 L 77.259 1.004 C 77.259 1.004 77.259 0.995 77.28 0.999 L 77.297 1.004 L 77.31 0.979 C 77.322 0.979 77.331 0.979 77.343 0.983 C 77.347 0.974 77.356 0.97 77.36 0.962 C 77.377 0.966 77.397 0.97 77.414 0.979 C 77.435 0.97 77.452 0.966 77.473 0.958 L 77.485 0.932 C 77.49 0.924 77.494 0.912 77.498 0.903 C 77.51 0.899 77.523 0.895 77.54 0.886 L 77.577 0.874 C 77.59 0.878 77.598 0.882 77.611 0.891 C 77.623 0.895 77.64 0.899 77.653 0.903 C 77.661 0.912 77.669 0.92 77.674 0.928 C 77.669 0.932 77.665 0.937 77.661 0.945 L 77.661 0.962 C 77.653 0.962 77.644 0.966 77.636 0.966 L 77.619 0.966 C 77.611 0.979 77.603 0.987 77.594 0.999 C 77.577 1.008 77.565 1.016 77.548 1.025 C 77.548 1.025 77.485 1.033 77.477 1.037 L 77.46 1.045 C 77.456 1.054 77.452 1.058 77.452 1.066 C 77.448 1.079 77.448 1.096 77.444 1.108 C 77.435 1.117 77.427 1.129 77.423 1.137 C 77.418 1.15 77.418 1.163 77.414 1.175 C 77.423 1.179 77.435 1.188 77.444 1.192 C 77.452 1.204 77.456 1.213 77.464 1.225 L 77.431 1.225 C 77.427 1.234 77.427 1.238 77.423 1.246 C 77.431 1.25 77.435 1.255 77.444 1.263 C 77.444 1.263 77.464 1.242 77.464 1.246 C 77.464 1.255 77.469 1.276 77.469 1.276 L 77.531 1.276 C 77.544 1.271 77.561 1.267 77.573 1.259 C 77.59 1.267 77.607 1.271 77.623 1.28 L 77.669 1.28 C 77.665 1.284 77.665 1.292 77.661 1.297 C 77.669 1.309 77.682 1.322 77.69 1.334 C 77.699 1.338 77.711 1.343 77.72 1.347 C 77.728 1.355 77.736 1.363 77.749 1.372 C 77.728 1.363 77.707 1.359 77.686 1.351 C 77.674 1.355 77.661 1.355 77.649 1.359 C 77.64 1.359 77.632 1.359 77.623 1.363 C 77.615 1.355 77.607 1.351 77.594 1.343 C 77.586 1.338 77.577 1.338 77.569 1.334 C 77.569 1.338 77.565 1.343 77.565 1.347 C 77.548 1.338 77.531 1.326 77.515 1.317 C 77.498 1.317 77.477 1.313 77.46 1.313 L 77.427 1.313 C 77.423 1.33 77.414 1.347 77.41 1.359 C 77.418 1.359 77.423 1.363 77.431 1.363 C 77.423 1.372 77.418 1.38 77.41 1.389 L 77.393 1.405 C 77.393 1.414 77.397 1.426 77.397 1.435 C 77.381 1.435 77.36 1.439 77.343 1.439 C 77.343 1.43 77.339 1.418 77.339 1.409 C 77.339 1.401 77.339 1.393 77.343 1.384 C 77.326 1.384 77.305 1.389 77.289 1.389 C 77.276 1.405 77.264 1.418 77.251 1.435 C 77.238 1.451 77.226 1.464 77.218 1.481 C 77.218 1.489 77.218 1.497 77.213 1.506 C 77.205 1.51 77.192 1.514 77.184 1.518 C 77.188 1.51 77.188 1.497 77.192 1.489 C 77.18 1.493 77.167 1.497 77.155 1.506 C 77.155 1.514 77.151 1.522 77.151 1.531 L 77.113 1.556 C 77.113 1.552 77.109 1.548 77.109 1.543 L 77.071 1.543 C 77.071 1.535 77.067 1.527 77.067 1.514 L 77.092 1.527 L 77.092 1.506 C 77.079 1.502 77.071 1.502 77.059 1.497 C 77.046 1.502 77.038 1.506 77.025 1.51 C 76.983 1.502 76.946 1.493 76.904 1.485 C 76.883 1.468 76.858 1.451 76.837 1.43 C 76.828 1.435 76.824 1.439 76.816 1.439 C 76.808 1.439 76.799 1.435 76.787 1.435 C 76.782 1.439 76.774 1.443 76.77 1.447 C 76.766 1.439 76.766 1.43 76.762 1.422 C 76.753 1.414 76.745 1.409 76.741 1.401 C 76.741 1.384 76.736 1.368 76.736 1.351 C 76.745 1.347 76.749 1.343 76.757 1.343 C 76.732 1.359 76.724 1.355 76.72 1.355 C 76.728 1.343 76.741 1.334 76.749 1.322 C 76.762 1.313 76.774 1.301 76.787 1.292 C 76.791 1.297 76.795 1.305 76.799 1.309 L 76.816 1.292 C 76.808 1.284 76.799 1.276 76.795 1.267 C 76.799 1.259 76.808 1.25 76.812 1.242 L 76.795 1.225 L 76.816 1.225 C 76.82 1.221 76.82 1.217 76.824 1.217 C 76.828 1.209 76.833 1.204 76.833 1.196 C 76.82 1.196 76.808 1.2 76.795 1.2 C 76.791 1.209 76.782 1.213 76.778 1.221 C 76.766 1.217 76.749 1.209 76.736 1.204 C 76.724 1.213 76.715 1.217 76.703 1.225 C 76.707 1.23 76.745 1.217 76.745 1.217 C 76.753 1.221 76.757 1.225 76.766 1.225 C 76.766 1.234 76.766 1.238 76.762 1.246 L 76.732 1.246 C 76.724 1.25 76.715 1.25 76.711 1.255 L 76.695 1.238 C 76.69 1.25 76.682 1.263 76.678 1.276 C 76.686 1.28 76.69 1.284 76.699 1.292 C 76.69 1.297 76.682 1.301 76.674 1.309 C 76.674 1.317 76.669 1.33 76.669 1.338 C 76.674 1.343 76.678 1.343 76.686 1.347 C 76.682 1.355 76.682 1.359 76.678 1.368 C 76.674 1.368 76.669 1.372 76.665 1.372 C 76.669 1.38 76.674 1.384 76.674 1.393 L 76.674 1.405 L 76.649 1.418 C 76.653 1.426 76.653 1.435 76.657 1.443 C 76.649 1.443 76.632 1.435 76.632 1.435 C 76.632 1.443 76.628 1.455 76.628 1.464 L 76.607 1.443 C 76.598 1.443 76.59 1.447 76.582 1.447 C 76.582 1.451 76.577 1.46 76.577 1.464 L 76.565 1.464 L 76.565 1.439 C 76.556 1.435 76.544 1.43 76.536 1.43 C 76.531 1.426 76.523 1.426 76.519 1.422 C 76.502 1.426 76.485 1.426 76.473 1.43 C 76.456 1.435 76.444 1.443 76.427 1.447 C 76.418 1.455 76.414 1.468 76.406 1.476 C 76.397 1.481 76.385 1.489 76.377 1.493 C 76.364 1.489 76.347 1.481 76.335 1.476 L 76.255 1.476 C 76.255 1.489 76.251 1.502 76.251 1.514 C 76.23 1.518 76.213 1.518 76.192 1.522 C 76.184 1.527 76.176 1.535 76.163 1.539 C 76.151 1.535 76.134 1.527 76.121 1.522 L 76.121 1.493 C 76.113 1.493 76.105 1.493 76.096 1.489 C 76.092 1.51 76.084 1.531 76.079 1.552 C 76.059 1.548 76.042 1.543 76.021 1.543 C 76.013 1.527 76.008 1.522 76.008 1.518 C 75.983 1.514 75.958 1.506 75.937 1.502 C 75.933 1.51 75.929 1.518 75.925 1.531 C 75.937 1.539 75.946 1.548 75.958 1.556 C 75.962 1.568 75.967 1.585 75.967 1.598 C 75.975 1.594 75.983 1.594 75.987 1.589 C 75.992 1.606 75.996 1.619 75.996 1.635 C 75.996 1.635 75.967 1.665 75.971 1.665 C 75.975 1.669 76.013 1.723 76.013 1.723 L 75.987 1.799 C 75.975 1.811 75.967 1.828 75.954 1.84 L 75.891 1.84 C 75.883 1.832 75.874 1.824 75.862 1.815 C 75.837 1.807 75.816 1.794 75.791 1.786 C 75.766 1.773 75.741 1.761 75.715 1.753 C 75.711 1.748 75.707 1.74 75.703 1.736 C 75.69 1.736 75.674 1.732 75.661 1.732 C 75.661 1.736 75.657 1.74 75.657 1.744 C 75.649 1.74 75.644 1.736 75.636 1.732 C 75.619 1.736 75.607 1.736 75.59 1.74 C 75.594 1.744 75.603 1.803 75.603 1.803 C 75.594 1.807 75.59 1.811 75.582 1.815 C 75.582 1.832 75.577 1.849 75.577 1.866 C 75.569 1.878 75.556 1.891 75.548 1.903 C 75.531 1.92 75.515 1.937 75.498 1.949 C 75.49 1.958 75.485 1.97 75.477 1.979 C 75.485 1.979 75.494 1.979 75.502 1.983 C 75.502 1.987 75.498 1.991 75.498 1.995 L 75.481 1.995 C 75.485 1.999 75.485 2.008 75.49 2.012 C 75.485 2.025 75.481 2.033 75.481 2.045 C 75.473 2.058 75.46 2.066 75.452 2.079 C 75.46 2.083 75.469 2.083 75.477 2.087 L 75.49 2.1 C 75.49 2.108 75.494 2.112 75.494 2.121 L 75.544 2.121 C 75.548 2.138 75.552 2.15 75.556 2.167 C 75.561 2.179 75.561 2.188 75.565 2.2 C 75.59 2.2 75.615 2.196 75.644 2.196 C 75.665 2.204 75.69 2.217 75.711 2.225 C 75.728 2.213 75.749 2.204 75.766 2.192 L 75.82 2.192 C 75.828 2.179 75.837 2.171 75.841 2.158 C 75.862 2.15 75.879 2.142 75.9 2.138 C 75.895 2.125 75.891 2.112 75.891 2.1 C 75.916 2.087 75.946 2.071 75.971 2.058 C 76.013 2.05 76.054 2.037 76.092 2.029 C 76.1 2.008 76.113 1.987 76.121 1.97 C 76.138 1.97 76.155 1.966 76.172 1.966 C 76.192 1.979 76.209 1.995 76.23 2.008 C 76.255 2.008 76.28 2.012 76.31 2.012 C 76.335 2.004 76.36 1.995 76.381 1.987 C 76.397 2.008 76.418 2.025 76.435 2.045 C 76.431 2.087 76.431 2.129 76.427 2.171 C 76.435 2.188 76.444 2.209 76.452 2.225 C 76.469 2.242 76.485 2.255 76.502 2.271 C 76.519 2.305 76.531 2.338 76.548 2.376 C 76.544 2.397 76.544 2.418 76.54 2.435 C 76.527 2.451 76.51 2.468 76.498 2.485 L 76.515 2.502 C 76.544 2.481 76.573 2.464 76.598 2.443 C 76.598 2.422 76.598 2.401 76.594 2.38 C 76.603 2.372 76.615 2.363 76.623 2.359 C 76.632 2.376 76.644 2.393 76.653 2.409 C 76.661 2.405 76.669 2.401 76.682 2.397 C 76.669 2.376 76.657 2.355 76.644 2.338 C 76.632 2.322 76.619 2.309 76.607 2.292 C 76.611 2.284 76.619 2.28 76.623 2.271 C 76.603 2.255 76.586 2.242 76.565 2.225 C 76.556 2.184 76.552 2.142 76.544 2.104 C 76.531 2.087 76.523 2.071 76.51 2.058 C 76.523 2.045 76.536 2.033 76.544 2.02 C 76.544 2.008 76.544 1.995 76.548 1.987 L 76.611 1.999 L 76.586 2.025 C 76.582 2.037 76.582 2.054 76.577 2.066 C 76.59 2.066 76.598 2.062 76.611 2.062 C 76.623 2.054 76.632 2.041 76.644 2.033 L 76.644 2.071 C 76.64 2.091 76.636 2.117 76.628 2.138 C 76.674 2.2 76.72 2.267 76.77 2.33 C 76.762 2.343 76.757 2.351 76.749 2.363 L 76.724 2.389 C 76.728 2.409 76.732 2.43 76.736 2.447 C 76.741 2.472 76.745 2.497 76.753 2.522 C 76.762 2.527 76.762 2.539 76.757 2.552 C 76.77 2.56 76.787 2.573 76.799 2.581 L 76.812 2.619 C 76.803 2.606 76.791 2.594 76.782 2.581 L 76.749 2.581 C 76.745 2.602 76.741 2.623 76.736 2.648 C 76.753 2.656 76.77 2.665 76.787 2.677 L 76.824 2.665 C 76.828 2.656 76.833 2.644 76.841 2.635 C 76.854 2.64 76.862 2.648 76.874 2.652 C 76.887 2.656 76.895 2.656 76.908 2.661 C 76.904 2.656 76.895 2.644 76.887 2.585 L 76.874 2.506 C 76.879 2.489 76.883 2.472 76.891 2.46 L 76.904 2.51 C 76.921 2.506 76.937 2.506 76.954 2.502 C 76.954 2.489 76.95 2.476 76.95 2.464 C 76.979 2.476 77.008 2.493 77.042 2.506 C 77.042 2.506 77.059 2.527 77.054 2.535 C 77.05 2.543 77.029 2.552 77.029 2.552 C 77.05 2.548 77.075 2.548 77.096 2.543 L 77.172 2.543 L 77.146 2.493 L 77.146 2.451 L 77.197 2.414 C 77.213 2.397 77.23 2.384 77.247 2.368 C 77.268 2.347 77.289 2.33 77.31 2.309 C 77.31 2.309 77.372 2.259 77.372 2.267 C 77.372 2.276 77.423 2.288 77.423 2.288 C 77.431 2.305 77.435 2.322 77.444 2.338 L 77.481 2.338 C 77.485 2.347 77.49 2.355 77.494 2.368 C 77.473 2.368 77.448 2.368 77.427 2.372 C 77.439 2.384 77.448 2.401 77.46 2.414 C 77.452 2.426 77.444 2.435 77.439 2.447 L 77.536 2.447 C 77.552 2.451 77.573 2.455 77.59 2.46 C 77.594 2.451 77.598 2.447 77.603 2.439 L 77.54 2.414 C 77.54 2.405 77.544 2.397 77.544 2.389 C 77.544 2.389 77.515 2.326 77.519 2.334 C 77.523 2.343 77.573 2.376 77.573 2.376 C 77.611 2.372 77.649 2.363 77.686 2.359 C 77.686 2.359 77.778 2.38 77.77 2.38 C 77.762 2.38 77.678 2.389 77.678 2.389 C 77.678 2.401 77.682 2.414 77.682 2.426 L 77.607 2.451 C 77.611 2.46 77.611 2.464 77.615 2.472 C 77.628 2.497 77.64 2.522 77.653 2.543 C 77.665 2.568 77.678 2.598 77.69 2.623 C 77.703 2.64 77.715 2.652 77.732 2.669 C 77.732 2.69 77.728 2.707 77.728 2.727 C 77.703 2.736 77.678 2.748 77.653 2.757 C 77.644 2.748 77.632 2.74 77.623 2.732 C 77.598 2.723 77.573 2.715 77.548 2.711 C 77.523 2.686 77.502 2.661 77.477 2.64 C 77.473 2.623 77.469 2.61 77.464 2.594 C 77.444 2.589 77.427 2.585 77.406 2.585 C 77.389 2.577 77.372 2.573 77.356 2.564 L 77.268 2.577 C 77.243 2.568 77.222 2.564 77.197 2.556 C 77.197 2.564 77.201 2.573 77.201 2.581 C 77.188 2.577 77.172 2.573 77.159 2.568 C 77.138 2.564 77.121 2.56 77.1 2.56 C 77.084 2.56 77.067 2.564 77.05 2.564 L 77.021 2.594 C 77.029 2.598 77.038 2.606 77.046 2.61 C 77.046 2.623 77.042 2.64 77.042 2.652 L 77.004 2.652 L 77.004 2.694 C 77.008 2.711 77.013 2.727 77.017 2.74 C 77.025 2.757 77.033 2.773 77.042 2.794 C 77.054 2.803 77.067 2.807 77.079 2.815 C 77.084 2.832 77.084 2.849 77.084 2.866 L 77.117 2.866 L 77.142 2.84 L 77.18 2.878 L 77.205 2.916 C 77.238 2.916 77.272 2.92 77.305 2.92 C 77.314 2.924 77.318 2.928 77.326 2.932 C 77.335 2.937 77.343 2.941 77.351 2.941 C 77.331 2.987 77.31 3.029 77.289 3.075 C 77.251 3.117 77.209 3.158 77.172 3.2 C 77.146 3.196 77.121 3.188 77.096 3.184 C 77.079 3.179 77.063 3.179 77.046 3.175 C 77.042 3.167 77.042 3.154 77.038 3.146 L 76.975 3.133 C 76.971 3.142 76.967 3.146 76.962 3.154 C 76.946 3.142 76.929 3.129 76.916 3.117 C 76.887 3.1 76.862 3.083 76.833 3.066 L 76.808 3.029 C 76.795 3.025 76.787 3.025 76.774 3.02 C 76.774 3.012 76.778 3.008 76.778 2.999 C 76.753 2.987 76.728 2.97 76.703 2.958 C 76.699 2.945 76.699 2.932 76.695 2.92 C 76.678 2.903 76.657 2.891 76.64 2.874 C 76.619 2.878 76.603 2.878 76.582 2.882 C 76.565 2.891 76.552 2.899 76.536 2.907 C 76.54 2.924 76.54 2.937 76.544 2.953 C 76.527 2.962 76.51 2.974 76.494 2.983 C 76.452 2.949 76.41 2.92 76.364 2.886 L 76.339 2.799 L 76.264 2.723 C 76.251 2.715 76.234 2.707 76.222 2.694 C 76.205 2.665 76.192 2.64 76.176 2.614 C 76.192 2.602 76.205 2.589 76.222 2.577 C 76.23 2.56 76.243 2.548 76.251 2.531 L 76.251 2.502 L 76.301 2.464 C 76.293 2.46 76.28 2.455 76.272 2.447 C 76.264 2.435 76.259 2.422 76.251 2.409 C 76.234 2.409 76.218 2.414 76.201 2.414 C 76.18 2.401 76.159 2.389 76.142 2.372 C 76.134 2.376 76.13 2.38 76.121 2.384 C 76.121 2.372 76.117 2.363 76.117 2.351 C 76.105 2.359 76.092 2.359 76.084 2.363 C 76.046 2.347 76.013 2.33 75.975 2.313 C 75.967 2.317 75.954 2.317 75.941 2.322 C 75.925 2.309 75.908 2.301 75.891 2.288 C 75.858 2.292 75.828 2.301 75.795 2.305 C 75.778 2.301 75.766 2.296 75.749 2.292 C 75.736 2.296 75.728 2.305 75.715 2.309 L 75.678 2.309 C 75.674 2.301 75.674 2.292 75.669 2.284 C 75.657 2.284 75.649 2.288 75.636 2.288 C 75.628 2.284 75.619 2.276 75.611 2.271 C 75.603 2.271 75.598 2.267 75.59 2.267 C 75.586 2.259 75.582 2.25 75.573 2.242 L 75.573 2.217 C 75.569 2.217 75.565 2.213 75.556 2.213 C 75.544 2.217 75.536 2.225 75.523 2.23 L 75.46 2.292 C 75.431 2.296 75.397 2.305 75.368 2.309 L 75.318 2.322 C 75.301 2.338 75.289 2.355 75.272 2.372 C 75.264 2.389 75.255 2.405 75.247 2.426 C 75.243 2.439 75.243 2.455 75.238 2.468 C 75.213 2.485 75.192 2.502 75.167 2.518 C 75.126 2.531 75.079 2.548 75.038 2.56 C 75.008 2.573 74.979 2.589 74.95 2.602 C 74.908 2.644 74.866 2.681 74.824 2.723 C 74.799 2.744 74.774 2.761 74.749 2.782 C 74.741 2.799 74.732 2.811 74.724 2.828 C 74.728 2.845 74.728 2.861 74.732 2.878 C 74.724 2.886 74.72 2.899 74.711 2.907 L 74.699 2.983 C 74.674 3.025 74.653 3.066 74.628 3.104 L 74.565 3.167 C 74.556 3.213 74.552 3.259 74.544 3.305 C 74.552 3.322 74.561 3.334 74.569 3.351 L 74.594 3.464 L 74.594 3.627 C 74.607 3.656 74.615 3.681 74.628 3.711 C 74.64 3.736 74.653 3.761 74.669 3.79 L 74.72 3.891 C 74.757 3.886 74.795 3.886 74.833 3.882 C 74.854 3.895 74.879 3.907 74.9 3.92 C 74.908 3.928 74.916 3.941 74.925 3.949 C 74.925 3.949 75.033 3.949 75.042 3.953 C 75.05 3.958 75.142 3.983 75.142 3.983 C 75.176 3.979 75.205 3.979 75.238 3.974 C 75.259 3.987 75.276 4.004 75.297 4.016 C 75.297 4.016 75.322 4.071 75.318 4.079 C 75.314 4.083 75.301 4.1 75.301 4.1 C 75.31 4.117 75.314 4.133 75.322 4.15 C 75.36 4.158 75.393 4.171 75.431 4.179 C 75.439 4.209 75.444 4.242 75.452 4.271 C 75.423 4.317 75.393 4.359 75.368 4.405 L 75.318 4.468 C 75.339 4.518 75.36 4.564 75.381 4.614 C 75.381 4.614 75.397 4.69 75.393 4.702 C 75.393 4.711 75.389 4.878 75.389 4.878 C 75.381 4.886 75.372 4.891 75.368 4.899 C 75.364 4.912 75.36 4.924 75.351 4.937 C 75.351 4.962 75.347 4.987 75.347 5.012 L 75.322 5.05 L 75.259 5.087 L 75.172 5.175 C 75.163 5.204 75.155 5.23 75.146 5.259 C 75.155 5.28 75.167 5.301 75.176 5.322 C 75.176 5.338 75.172 5.355 75.172 5.376 C 75.176 5.414 75.184 5.447 75.188 5.485 C 75.172 5.548 75.151 5.606 75.134 5.669 L 75.134 5.744 C 75.142 5.753 75.151 5.761 75.155 5.769 C 75.159 5.799 75.159 5.824 75.163 5.853 C 75.167 5.886 75.167 5.92 75.172 5.953 C 75.172 5.953 75.134 5.974 75.13 5.979 C 75.13 5.983 75.121 6.041 75.121 6.041 C 75.138 6.054 75.159 6.071 75.176 6.083 C 75.205 6.087 75.23 6.091 75.259 6.096 C 75.293 6.104 75.322 6.112 75.356 6.121 C 75.377 6.133 75.397 6.142 75.418 6.154 L 75.552 6.154 C 75.619 6.125 75.69 6.096 75.757 6.066 C 75.77 6.066 75.778 6.062 75.791 6.062 L 75.866 5.962 C 75.866 5.958 75.862 5.953 75.862 5.945 C 75.883 5.941 75.904 5.937 75.925 5.937 L 76.008 5.937 L 76.046 5.836 C 76.05 5.799 76.05 5.765 76.054 5.727 C 76.079 5.723 76.1 5.715 76.126 5.711 C 76.134 5.702 76.146 5.694 76.155 5.686 C 76.172 5.69 76.184 5.694 76.201 5.698 C 76.247 5.694 76.289 5.694 76.335 5.69 C 76.356 5.673 76.377 5.656 76.397 5.644 C 76.427 5.577 76.46 5.514 76.49 5.447 L 76.464 5.397 L 76.477 5.322 C 76.49 5.309 76.502 5.297 76.519 5.288 C 76.515 5.271 76.506 5.255 76.502 5.234 C 76.523 5.209 76.544 5.188 76.565 5.163 C 76.582 5.146 76.603 5.129 76.619 5.112 L 76.695 5.1 C 76.724 5.079 76.757 5.058 76.787 5.033 C 76.874 5.008 76.958 4.979 77.046 4.953 C 77.05 4.945 77.059 4.937 77.063 4.928 C 77.075 4.928 77.084 4.928 77.096 4.924 C 77.126 4.899 77.155 4.874 77.18 4.849 C 77.205 4.824 77.226 4.794 77.251 4.769 L 77.347 4.673 C 77.364 4.644 77.381 4.61 77.402 4.581 C 77.377 4.581 77.347 4.585 77.322 4.585 C 77.31 4.577 77.293 4.568 77.28 4.564 C 77.247 4.564 77.213 4.568 77.18 4.568 C 77.176 4.56 77.172 4.556 77.163 4.548 C 77.142 4.543 77.117 4.543 77.096 4.539 C 77.084 4.51 77.071 4.476 77.059 4.447 C 77.067 4.443 77.079 4.439 77.088 4.435 C 77.092 4.422 77.092 4.414 77.096 4.401 C 77.088 4.38 77.079 4.359 77.071 4.343 C 77.067 4.309 77.063 4.28 77.059 4.246 C 77.042 4.217 77.025 4.188 77.004 4.158 C 77.013 4.112 77.021 4.066 77.033 4.02 C 77.025 3.987 77.013 3.949 77.004 3.916 C 77.017 3.891 77.029 3.861 77.046 3.836 C 77.05 3.811 77.05 3.786 77.054 3.757 C 77.046 3.732 77.038 3.707 77.029 3.686 C 77.033 3.665 77.038 3.648 77.046 3.627 C 77.046 3.594 77.042 3.56 77.042 3.531 L 77.042 3.426 C 77.042 3.409 77.042 3.389 77.046 3.372 C 77.046 3.372 77.05 3.292 77.05 3.28 C 77.05 3.288 77.063 3.393 77.063 3.393 C 77.075 3.393 77.088 3.389 77.1 3.389 C 77.113 3.397 77.121 3.405 77.134 3.414 C 77.138 3.464 77.146 3.514 77.151 3.564 C 77.151 3.589 77.146 3.614 77.146 3.64 C 77.155 3.669 77.163 3.694 77.167 3.723 C 77.155 3.753 77.142 3.782 77.134 3.811 L 77.121 3.912 L 77.159 3.999 C 77.159 4.029 77.155 4.058 77.155 4.087 C 77.159 4.108 77.163 4.133 77.167 4.154 C 77.167 4.154 77.142 4.276 77.134 4.28 C 77.13 4.284 77.109 4.384 77.109 4.384 L 77.121 4.409 C 77.142 4.418 77.159 4.422 77.18 4.43 C 77.188 4.422 77.201 4.418 77.209 4.409 C 77.226 4.418 77.243 4.422 77.259 4.43 C 77.28 4.43 77.297 4.426 77.318 4.426 C 77.335 4.43 77.347 4.43 77.364 4.435 C 77.389 4.43 77.414 4.422 77.439 4.418 C 77.477 4.414 77.515 4.414 77.552 4.409 L 77.577 4.372 C 77.623 4.372 77.665 4.376 77.711 4.376 C 77.72 4.368 77.728 4.355 77.741 4.347 C 77.757 4.351 77.774 4.359 77.791 4.363 C 77.799 4.355 77.803 4.343 77.812 4.334 C 77.833 4.338 77.858 4.343 77.879 4.347 C 77.887 4.33 77.891 4.309 77.9 4.292 C 77.916 4.28 77.933 4.271 77.95 4.259 C 77.979 4.234 78.004 4.204 78.033 4.179 C 78.029 4.171 78.029 4.163 78.025 4.154 L 78.025 4.112 C 78.025 4.112 78.004 4.071 78 4.071 C 77.992 4.071 77.971 4.037 77.971 4.037 C 77.962 4.012 77.958 3.987 77.95 3.962 C 77.958 3.941 77.967 3.92 77.975 3.903 L 77.958 3.903 L 77.937 3.924 C 77.916 3.932 77.9 3.945 77.879 3.953 C 77.858 3.958 77.841 3.962 77.82 3.962 C 77.808 3.949 77.795 3.941 77.782 3.928 L 77.749 3.928 C 77.741 3.92 77.732 3.907 77.724 3.899 C 77.732 3.891 77.741 3.878 77.749 3.87 C 77.753 3.853 77.762 3.832 77.766 3.815 C 77.757 3.824 77.745 3.832 77.736 3.836 C 77.728 3.836 77.715 3.836 77.707 3.832 C 77.715 3.807 77.724 3.786 77.736 3.761 C 77.728 3.744 77.715 3.727 77.707 3.711 C 77.711 3.702 77.711 3.698 77.715 3.69 L 77.703 3.652 C 77.699 3.623 77.699 3.594 77.695 3.564 C 77.703 3.552 77.707 3.543 77.715 3.531 L 77.732 3.548 C 77.732 3.535 77.736 3.522 77.736 3.51 L 77.749 3.535 L 77.766 3.535 C 77.774 3.543 77.778 3.552 77.787 3.56 L 77.808 3.56 C 77.812 3.577 77.812 3.594 77.816 3.61 C 77.812 3.619 77.808 3.631 77.803 3.64 C 77.816 3.694 77.824 3.744 77.837 3.799 C 77.854 3.82 77.874 3.84 77.891 3.857 L 77.975 3.857 C 77.983 3.853 77.992 3.853 78 3.849 C 78.004 3.861 78.008 3.878 78.013 3.891 C 78.013 3.903 78.008 3.92 78.008 3.932 C 78.013 3.949 78.021 3.966 78.025 3.979 C 78.042 3.987 78.054 3.991 78.071 3.999 C 78.088 4.008 78.105 4.016 78.126 4.025 C 78.134 4.037 78.142 4.05 78.151 4.058 L 78.201 4.058 C 78.209 4.062 78.218 4.071 78.226 4.075 C 78.272 4.087 78.322 4.1 78.368 4.112 C 78.364 4.125 78.364 4.142 78.36 4.154 C 78.368 4.163 78.372 4.171 78.381 4.184 C 78.381 4.196 78.385 4.209 78.385 4.221 C 78.397 4.234 78.41 4.242 78.423 4.255 C 78.414 4.267 78.41 4.28 78.402 4.292 C 78.406 4.301 78.414 4.309 78.418 4.317 C 78.431 4.322 78.448 4.326 78.46 4.33 C 78.473 4.326 78.485 4.322 78.502 4.322 C 78.506 4.326 78.506 4.33 78.51 4.334 C 78.498 4.343 78.481 4.347 78.469 4.355 C 78.444 4.351 78.414 4.351 78.389 4.347 C 78.397 4.372 78.406 4.397 78.414 4.418 C 78.418 4.43 78.418 4.447 78.423 4.46 C 78.435 4.464 78.448 4.464 78.46 4.468 C 78.477 4.46 78.49 4.455 78.506 4.447 C 78.519 4.43 78.527 4.414 78.54 4.397 C 78.548 4.397 78.531 4.455 78.531 4.455 L 78.531 4.481 C 78.515 4.502 78.498 4.518 78.481 4.539 L 78.481 4.589 C 78.469 4.623 78.456 4.661 78.439 4.694 C 78.431 4.765 78.423 4.832 78.414 4.903 C 78.41 4.92 78.406 4.937 78.397 4.949 L 78.397 5.1 C 78.393 5.104 78.385 5.108 78.381 5.117 C 78.385 5.146 78.389 5.175 78.393 5.209 C 78.406 5.213 78.414 5.213 78.427 5.217 L 78.452 5.192 C 78.473 5.175 78.49 5.163 78.51 5.146 C 78.519 5.146 78.527 5.15 78.536 5.15 C 78.54 5.137 78.544 5.121 78.548 5.108 C 78.565 5.087 78.586 5.066 78.603 5.045 C 78.611 5.02 78.623 4.995 78.632 4.974 C 78.644 4.958 78.653 4.941 78.665 4.924 L 78.678 4.886 C 78.69 4.882 78.699 4.878 78.711 4.874 C 78.728 4.87 78.745 4.87 78.762 4.866 C 78.774 4.861 78.787 4.861 78.799 4.857 C 78.808 4.849 78.812 4.84 78.82 4.832 C 78.837 4.832 78.849 4.832 78.866 4.836 C 78.9 4.82 78.933 4.803 78.962 4.786 C 78.971 4.778 78.979 4.773 78.987 4.765 C 78.996 4.769 79.004 4.773 79.017 4.778 C 79.033 4.769 79.054 4.761 79.071 4.748 C 79.079 4.736 79.092 4.719 79.1 4.707 C 79.117 4.707 79.13 4.702 79.146 4.702 L 79.146 4.727 C 79.167 4.723 79.188 4.723 79.209 4.719 C 79.213 4.723 79.218 4.727 79.218 4.732 C 79.226 4.723 79.234 4.711 79.243 4.702 C 79.243 4.702 79.264 4.661 79.264 4.669 C 79.264 4.677 79.285 4.702 79.285 4.702 C 79.28 4.732 79.276 4.757 79.268 4.786 C 79.268 4.807 79.268 4.832 79.264 4.853 C 79.276 4.857 79.289 4.857 79.301 4.861 C 79.297 4.886 79.293 4.912 79.285 4.932 C 79.28 4.941 79.276 4.949 79.272 4.962 C 79.272 4.966 79.276 4.974 79.276 4.979 C 79.272 4.991 79.264 5.004 79.259 5.016 C 79.251 5.029 79.243 5.037 79.234 5.05 C 79.23 5.058 79.226 5.062 79.226 5.071 L 79.238 5.096 C 79.251 5.096 79.259 5.1 79.272 5.1 C 79.289 5.091 79.301 5.087 79.318 5.079 C 79.318 5.079 79.339 5.05 79.339 5.058 C 79.339 5.066 79.36 5.108 79.36 5.108 L 79.347 5.146 C 79.339 5.175 79.335 5.204 79.326 5.238 C 79.326 5.246 79.331 5.255 79.331 5.267 C 79.326 5.284 79.318 5.305 79.314 5.322 C 79.31 5.326 79.305 5.33 79.301 5.338 C 79.297 5.355 79.297 5.376 79.293 5.393 C 79.289 5.401 79.28 5.409 79.276 5.418 L 79.264 5.43 L 79.264 5.443 L 79.247 5.46 L 79.213 5.493 C 79.218 5.51 79.218 5.531 79.222 5.548 C 79.226 5.564 79.23 5.585 79.238 5.602 L 79.213 5.677 C 79.209 5.69 79.201 5.707 79.197 5.719 C 79.192 5.736 79.188 5.753 79.188 5.765 L 79.188 5.794 C 79.184 5.803 79.18 5.811 79.18 5.824 C 79.192 5.853 79.201 5.878 79.213 5.903 C 79.213 5.903 79.234 5.891 79.238 5.895 C 79.243 5.895 79.255 5.907 79.255 5.907 C 79.259 5.882 79.259 5.857 79.264 5.832 C 79.264 5.832 79.305 5.761 79.305 5.753 L 79.305 5.686 C 79.301 5.665 79.297 5.644 79.289 5.619 C 79.28 5.602 79.276 5.589 79.268 5.573 C 79.268 5.56 79.272 5.543 79.272 5.531 C 79.272 5.514 79.272 5.502 79.268 5.485 C 79.28 5.468 79.293 5.455 79.305 5.439 C 79.331 5.401 79.351 5.363 79.377 5.326 C 79.385 5.317 79.389 5.309 79.397 5.301 C 79.402 5.305 79.41 5.309 79.414 5.313 L 79.402 5.351 C 79.41 5.355 79.418 5.355 79.431 5.359 C 79.431 5.372 79.427 5.384 79.427 5.397 C 79.431 5.405 79.435 5.409 79.439 5.418 C 79.439 5.435 79.435 5.455 79.435 5.472 C 79.439 5.476 79.448 5.481 79.452 5.485 C 79.452 5.489 79.448 5.497 79.448 5.502 C 79.456 5.502 79.46 5.506 79.469 5.506 C 79.469 5.518 79.464 5.531 79.464 5.539 C 79.456 5.548 79.448 5.556 79.444 5.564 C 79.439 5.573 79.439 5.585 79.435 5.594 C 79.435 5.594 79.414 5.619 79.423 5.614 C 79.431 5.61 79.477 5.585 79.477 5.585 L 79.485 5.594 L 79.498 5.543 C 79.502 5.552 79.502 5.56 79.506 5.573 L 79.523 5.573 C 79.523 5.564 79.519 5.556 79.519 5.548 C 79.519 5.539 79.515 5.531 79.515 5.522 C 79.523 5.531 79.531 5.539 79.54 5.552 C 79.556 5.552 79.573 5.552 79.59 5.548 C 79.641 5.484 79.687 5.417 79.728 5.347 L 79.728 5.301 C 79.728 5.292 79.732 5.284 79.732 5.276 C 79.728 5.267 79.728 5.263 79.724 5.255 L 79.724 5.225 C 79.72 5.213 79.711 5.2 79.707 5.184 C 79.707 5.175 79.711 5.167 79.711 5.158 C 79.707 5.146 79.707 5.133 79.703 5.117 C 79.711 5.108 79.715 5.1 79.724 5.091 L 79.736 5.066 C 79.745 5.062 79.753 5.062 79.766 5.058 C 79.782 5.045 79.795 5.037 79.812 5.025 C 79.82 5.025 79.833 5.025 79.841 5.029 C 79.854 5.02 79.866 5.016 79.879 5.008 L 79.904 5.02 C 79.908 5.025 79.908 5.029 79.912 5.029 C 79.937 4.974 79.967 4.92 79.987 4.866 C 80.448 3.799 80.289 2.619 79.669 1.732 C 79.665 1.732 79.661 1.736 79.657 1.736 C 79.653 1.74 79.644 1.744 79.64 1.748 C 79.619 1.744 79.603 1.744 79.582 1.74 C 79.586 1.748 79.594 1.757 79.598 1.761 C 79.594 1.773 79.594 1.79 79.59 1.803 C 79.586 1.799 79.577 1.794 79.573 1.794 C 79.569 1.782 79.569 1.765 79.565 1.753 C 79.556 1.744 79.544 1.74 79.536 1.732 L 79.51 1.732 C 79.498 1.719 79.485 1.702 79.473 1.69 C 79.477 1.686 79.477 1.677 79.477 1.673 C 79.49 1.677 79.498 1.686 79.51 1.69 C 79.515 1.694 79.519 1.702 79.523 1.707 C 79.531 1.707 79.54 1.711 79.548 1.711 C 79.556 1.707 79.561 1.702 79.569 1.698 C 79.573 1.702 79.577 1.711 79.582 1.715 C 79.594 1.711 79.603 1.707 79.615 1.702 C 79.623 1.702 79.628 1.698 79.636 1.698 C 79.586 1.627 79.531 1.556 79.473 1.489 C 79.473 1.497 79.473 1.506 79.469 1.514 C 79.46 1.514 79.469 1.518 79.473 1.522 L 79.473 1.522 Z  M 75.803 1.204 C 75.808 1.213 75.816 1.225 75.82 1.234 L 75.845 1.259 C 75.866 1.255 75.891 1.25 75.912 1.25 C 75.933 1.246 75.954 1.242 75.979 1.234 C 75.987 1.217 75.996 1.204 76 1.188 C 75.996 1.179 75.996 1.175 75.992 1.167 C 75.992 1.167 76.038 1.15 76.059 1.133 C 76.054 1.121 76.046 1.112 76.042 1.1 C 76.042 1.096 76.046 1.087 76.046 1.083 C 76.033 1.075 76.017 1.062 76.004 1.054 C 76.004 1.058 76 1.066 76 1.071 C 75.983 1.083 75.971 1.096 75.954 1.104 C 75.937 1.096 75.925 1.087 75.908 1.079 C 75.904 1.087 75.9 1.1 75.891 1.108 C 75.874 1.112 75.858 1.121 75.841 1.125 C 75.854 1.133 75.866 1.142 75.879 1.154 C 75.874 1.167 75.866 1.179 75.862 1.192 C 75.845 1.196 75.824 1.2 75.803 1.204 L 75.803 1.204 Z " fill="rgb(91,160,2)"/><path d=" M 76.126 1.246 C 76.121 1.238 76.113 1.23 76.109 1.221 C 76.096 1.217 76.088 1.217 76.075 1.213 C 76.079 1.225 76.088 1.234 76.092 1.246 C 76.079 1.25 76.063 1.25 76.05 1.255 C 76.059 1.259 76.067 1.263 76.075 1.271 C 76.071 1.28 76.067 1.288 76.063 1.292 C 76.05 1.292 76.033 1.292 76.021 1.288 C 76.021 1.297 76.017 1.301 76.017 1.309 C 76.029 1.317 76.042 1.322 76.054 1.33 C 76.067 1.334 76.075 1.334 76.088 1.338 C 76.096 1.343 76.105 1.347 76.113 1.347 L 76.088 1.372 C 76.067 1.359 76.046 1.347 76.029 1.334 C 76 1.347 75.967 1.363 75.937 1.376 L 75.937 1.409 C 75.958 1.405 75.975 1.397 75.996 1.393 C 76.013 1.401 76.029 1.405 76.05 1.414 C 76.063 1.409 76.075 1.409 76.088 1.405 C 76.1 1.414 76.113 1.418 76.126 1.426 C 76.142 1.422 76.159 1.414 76.176 1.409 C 76.188 1.414 76.205 1.422 76.218 1.426 C 76.234 1.426 76.247 1.43 76.264 1.43 L 76.264 1.409 C 76.28 1.409 76.297 1.409 76.318 1.414 L 76.331 1.363 C 76.322 1.355 76.314 1.347 76.305 1.343 C 76.297 1.334 76.289 1.326 76.276 1.317 L 76.301 1.305 C 76.293 1.297 76.285 1.288 76.276 1.276 C 76.276 1.259 76.28 1.242 76.28 1.23 C 76.272 1.213 76.264 1.192 76.259 1.175 C 76.255 1.158 76.251 1.142 76.251 1.125 L 76.226 1.087 C 76.234 1.083 76.247 1.079 76.255 1.075 C 76.264 1.062 76.272 1.054 76.28 1.041 C 76.289 1.033 76.297 1.02 76.305 1.012 C 76.293 1.004 76.28 0.995 76.268 0.991 C 76.259 0.983 76.247 0.974 76.238 0.966 C 76.251 0.962 76.268 0.958 76.28 0.949 L 76.28 0.912 L 76.218 0.912 C 76.201 0.924 76.184 0.941 76.167 0.953 C 76.167 0.953 76.163 0.979 76.146 0.974 C 76.138 0.966 76.13 0.953 76.126 0.945 C 76.126 0.945 76.121 0.979 76.13 1.008 C 76.134 1.016 76.134 1.029 76.138 1.037 L 76.109 1.037 C 76.121 1.045 76.13 1.05 76.142 1.058 C 76.138 1.066 76.13 1.075 76.126 1.083 C 76.121 1.1 76.113 1.117 76.109 1.133 L 76.151 1.133 C 76.159 1.142 76.167 1.15 76.176 1.163 C 76.167 1.167 76.163 1.171 76.155 1.175 C 76.163 1.184 76.167 1.192 76.176 1.2 C 76.172 1.213 76.172 1.225 76.167 1.238 C 76.151 1.238 76.138 1.242 76.126 1.246 L 76.126 1.246 Z  M 76.167 0.891 C 76.163 0.878 76.155 0.87 76.151 0.857 C 76.142 0.866 76.13 0.874 76.121 0.886 C 76.126 0.895 76.134 0.899 76.138 0.907 C 76.146 0.903 76.159 0.895 76.167 0.891 Z  M 76.444 0.878 C 76.439 0.866 76.435 0.849 76.431 0.836 C 76.427 0.84 76.418 0.845 76.414 0.853 C 76.406 0.861 76.414 0.886 76.414 0.886 C 76.427 0.886 76.435 0.882 76.444 0.878 Z  M 76.054 2.112 C 76.05 2.117 76.05 2.125 76.046 2.129 C 76.038 2.138 76.033 2.146 76.025 2.154 C 76.021 2.163 76.017 2.167 76.013 2.175 C 76.029 2.171 76.042 2.167 76.059 2.163 C 76.071 2.15 76.054 2.112 76.054 2.112 Z  M 76.368 2.117 C 76.377 2.096 76.381 2.079 76.389 2.058 C 76.381 2.062 76.372 2.071 76.36 2.075 C 76.347 2.079 76.339 2.083 76.326 2.083 L 76.314 2.121 C 76.314 2.125 76.31 2.133 76.31 2.138 L 76.335 2.15 L 76.368 2.117 L 76.368 2.117 Z  M 76.134 2.167 L 76.1 2.167 C 76.109 2.175 76.117 2.179 76.126 2.188 C 76.13 2.179 76.134 2.171 76.134 2.167 Z  M 75.95 2.138 L 75.933 2.154 C 75.933 2.154 75.958 2.154 75.975 2.142 C 75.962 2.142 75.958 2.138 75.95 2.138 Z  M 76.305 2.267 C 76.314 2.255 76.326 2.238 76.335 2.225 C 76.335 2.225 76.414 2.171 76.335 2.188 C 76.259 2.204 76.318 2.158 76.289 2.184 L 76.259 2.2 L 76.259 2.25 C 76.255 2.263 76.247 2.28 76.243 2.292 C 76.255 2.292 76.264 2.296 76.276 2.296 C 76.285 2.284 76.293 2.276 76.305 2.267 L 76.305 2.267 Z  M 76.389 2.485 C 76.41 2.506 76.427 2.527 76.448 2.548 C 76.456 2.531 76.469 2.518 76.477 2.502 C 76.481 2.489 76.485 2.476 76.485 2.468 C 76.469 2.46 76.456 2.455 76.439 2.447 C 76.423 2.439 76.406 2.426 76.393 2.418 L 76.372 2.43 C 76.381 2.447 76.385 2.464 76.389 2.485 L 76.389 2.485 Z  M 76.862 2.857 C 76.874 2.866 76.904 2.845 76.904 2.845 C 76.895 2.836 76.883 2.828 76.874 2.815 C 76.862 2.811 76.849 2.803 76.837 2.799 C 76.824 2.79 76.816 2.778 76.803 2.769 C 76.791 2.765 76.778 2.761 76.766 2.761 C 76.778 2.778 76.791 2.794 76.808 2.807 C 76.808 2.811 76.849 2.849 76.862 2.857 L 76.862 2.857 Z  M 77.222 2.999 C 77.234 2.991 77.247 2.979 77.259 2.97 C 77.243 2.966 77.222 2.962 77.205 2.958 C 77.184 2.962 77.167 2.966 77.146 2.966 C 77.159 2.979 77.167 2.991 77.18 3.004 C 77.192 3.004 77.209 2.999 77.222 2.999 L 77.222 2.999 Z  M 76.782 1.33 C 76.787 1.347 76.791 1.376 76.791 1.376 C 76.799 1.384 76.808 1.393 76.82 1.401 C 76.824 1.393 76.833 1.389 76.837 1.38 C 76.841 1.368 76.845 1.351 76.854 1.338 C 76.833 1.33 76.782 1.33 76.782 1.33 L 76.782 1.33 Z  M 77.205 1.347 C 77.197 1.343 77.192 1.343 77.184 1.338 C 77.167 1.343 77.155 1.351 77.138 1.355 C 77.138 1.363 77.134 1.376 77.134 1.384 C 77.146 1.384 77.155 1.38 77.167 1.38 C 77.18 1.372 77.192 1.359 77.205 1.347 L 77.205 1.347 Z  M 77.377 1.351 C 77.368 1.351 77.364 1.355 77.356 1.355 C 77.343 1.351 77.331 1.347 77.322 1.347 C 77.322 1.355 77.318 1.368 77.318 1.376 C 77.331 1.38 77.343 1.38 77.36 1.384 C 77.364 1.376 77.372 1.363 77.377 1.351 L 77.377 1.351 Z  M 77.389 0.635 C 77.393 0.627 77.402 0.623 77.406 0.614 C 77.393 0.61 77.381 0.602 77.368 0.598 C 77.356 0.606 77.347 0.614 77.335 0.619 C 77.339 0.627 77.343 0.631 77.343 0.64 C 77.36 0.64 77.377 0.635 77.389 0.635 L 77.389 0.635 Z  M 77.473 0.573 C 77.473 0.573 77.444 0.585 77.431 0.594 C 77.444 0.598 77.46 0.602 77.473 0.606 C 77.477 0.602 77.481 0.594 77.49 0.589 L 77.473 0.573 Z  M 77.586 0.568 C 77.577 0.564 77.569 0.556 77.561 0.552 L 77.536 0.564 C 77.536 0.564 77.573 0.568 77.586 0.568 Z  M 77.72 0.577 C 77.72 0.568 77.724 0.56 77.724 0.552 C 77.707 0.552 77.695 0.548 77.678 0.548 C 77.669 0.552 77.661 0.556 77.653 0.556 C 77.661 0.56 77.665 0.568 77.674 0.573 C 77.69 0.573 77.703 0.573 77.72 0.577 L 77.72 0.577 Z  M 78.87 0.991 C 78.879 1.004 78.891 1.02 78.9 1.033 C 78.912 1.033 78.925 1.029 78.937 1.029 C 78.941 1.045 78.946 1.062 78.946 1.079 L 78.921 1.091 C 78.937 1.112 78.95 1.133 78.967 1.154 C 78.983 1.158 79 1.167 79.013 1.171 C 79.042 1.175 79.071 1.175 79.1 1.179 C 79.088 1.158 79.071 1.133 79.059 1.112 L 79.059 1.096 C 79.004 1.05 78.95 1.008 78.895 0.966 C 78.891 0.97 78.887 0.979 78.887 0.983 C 78.883 0.987 78.874 0.987 78.87 0.991 L 78.87 0.991 Z  M 79.18 1.292 L 79.18 1.271 C 79.167 1.259 79.159 1.246 79.146 1.234 L 79.126 1.213 C 79.121 1.225 79.117 1.234 79.113 1.246 C 79.121 1.259 79.134 1.267 79.142 1.28 L 79.18 1.292 L 79.18 1.292 Z  M 78.757 1.15 C 78.762 1.142 78.766 1.129 78.766 1.121 C 78.753 1.112 78.741 1.104 78.728 1.091 C 78.72 1.104 78.715 1.112 78.707 1.125 C 78.715 1.137 78.72 1.146 78.728 1.158 C 78.741 1.158 78.749 1.154 78.757 1.15 Z  M 79.795 5.125 C 79.787 5.129 79.782 5.133 79.774 5.142 C 79.778 5.15 79.782 5.158 79.787 5.171 L 79.799 5.196 C 79.812 5.175 79.824 5.154 79.837 5.129 L 79.833 5.129 C 79.82 5.125 79.808 5.125 79.795 5.125 L 79.795 5.125 Z  M 78.515 5.196 C 78.498 5.179 78.477 5.209 78.477 5.209 C 78.473 5.217 78.473 5.225 78.469 5.234 L 78.444 5.259 C 78.439 5.28 78.435 5.301 78.427 5.317 C 78.427 5.317 78.435 5.351 78.448 5.355 C 78.46 5.359 78.494 5.347 78.494 5.347 C 78.506 5.334 78.515 5.322 78.527 5.309 C 78.527 5.292 78.523 5.276 78.523 5.259 C 78.523 5.238 78.519 5.217 78.515 5.196 L 78.515 5.196 Z  M 76.778 5.661 C 76.766 5.677 76.753 5.694 76.741 5.715 C 76.728 5.723 76.711 5.727 76.699 5.736 C 76.686 5.74 76.678 5.748 76.665 5.753 C 76.657 5.757 76.653 5.761 76.644 5.761 C 76.628 5.753 76.611 5.748 76.594 5.74 C 76.582 5.744 76.565 5.748 76.552 5.748 C 76.531 5.753 76.515 5.761 76.494 5.765 C 76.485 5.769 76.473 5.773 76.464 5.778 C 76.46 5.794 76.452 5.807 76.448 5.824 C 76.456 5.84 76.464 5.861 76.473 5.878 C 76.46 5.882 76.452 5.882 76.439 5.886 C 76.423 5.899 76.402 5.907 76.385 5.92 C 76.368 5.937 76.351 5.958 76.335 5.974 C 76.339 5.991 76.343 6.008 76.351 6.025 C 76.351 6.045 76.347 6.066 76.347 6.087 C 76.36 6.1 76.368 6.117 76.381 6.129 L 76.448 6.129 C 76.469 6.117 76.494 6.1 76.515 6.087 C 76.54 6.058 76.561 6.033 76.586 6.004 C 76.603 5.995 76.623 5.983 76.64 5.97 C 76.661 5.945 76.686 5.924 76.707 5.899 C 76.72 5.886 76.728 5.874 76.741 5.861 C 76.741 5.861 76.753 5.815 76.757 5.803 C 76.762 5.79 76.766 5.836 76.766 5.836 C 76.778 5.828 76.791 5.82 76.799 5.815 C 76.799 5.815 76.808 5.761 76.803 5.744 C 76.799 5.732 76.812 5.677 76.812 5.677 C 76.799 5.673 76.791 5.665 76.778 5.661 L 76.778 5.661 Z  M 79.146 5.924 C 79.138 5.903 79.13 5.878 79.117 5.857 L 79.117 5.778 C 79.109 5.736 79.1 5.698 79.096 5.656 C 79.084 5.644 79.075 5.631 79.063 5.619 C 79.054 5.61 79.042 5.606 79.033 5.598 C 79.025 5.594 79.013 5.585 79.004 5.581 C 78.996 5.602 78.983 5.619 78.975 5.64 C 78.979 5.656 78.979 5.673 78.983 5.694 C 78.992 5.711 79 5.727 79.004 5.744 C 79.008 5.765 79.017 5.786 79.021 5.803 C 79.017 5.82 79.008 5.84 79.004 5.857 C 79.013 5.87 79.021 5.878 79.029 5.891 C 79.025 5.92 79.017 5.949 79.013 5.979 C 79.017 6.008 79.025 6.041 79.029 6.071 C 79.029 6.083 79.025 6.091 79.025 6.104 C 79.071 6.066 79.117 6.025 79.163 5.983 C 79.167 5.97 79.172 5.962 79.172 5.949 L 79.146 5.924 L 79.146 5.924 Z " fill="rgb(91,160,2)"/><g opacity="0.2"><path d=" M 73.971 2.363 C 73.31 3.995 74.071 5.866 75.699 6.564 C 76.49 6.903 77.339 6.903 78.092 6.631 C 74.54 6.61 73.967 4.029 73.971 2.363 Z " fill="rgb(0,0,0)"/></g><g opacity="0.4"><path d=" M 75.51 0.878 C 75.51 0.878 78.31 0.242 79.828 2.497 C 79.828 2.497 78.695 -0.394 75.51 0.878 Z " fill="rgb(208,224,234)"/></g><path d=" M 75.925 3.397 C 75.925 2.746 76.453 2.217 77.105 2.217 C 77.756 2.217 78.285 2.746 78.285 3.397 C 78.285 4.048 77.756 4.577 77.105 4.577 C 76.453 4.577 75.925 4.048 75.925 3.397 Z " fill="rgb(159,159,160)"/><g opacity="0.3"><path d=" M 80.222 3.707 L 80.205 3.92 L 78.192 3.916 C 78.192 3.916 77.745 4.92 76.644 4.681 C 76.644 4.681 75.782 4.472 75.741 3.514 C 75.741 3.514 75.64 2.564 76.711 2.376 L 77.444 3.146 L 77.841 3.51 L 80.155 3.51 L 80.222 3.707 L 80.222 3.707 Z " fill="rgb(0,0,0)"/></g><path d=" M 82.544 3.707 L 77.046 3.707 L 77.046 3.079 L 82.544 3.079 C 82.64 3.079 82.72 3.158 82.72 3.255 L 82.72 3.531 C 82.724 3.631 82.644 3.707 82.544 3.707 Z " fill="rgb(178,180,183)"/><rect x="77.033" y="3.263" width="5.674" height="0.188" transform="matrix(1,0,0,1,0,0)" fill="rgb(218,220,224)"/><path d=" M 82.594 3.707 L 77.046 3.707 L 77.046 3.581 L 82.72 3.581 C 82.724 3.652 82.665 3.707 82.594 3.707 Z " fill="rgb(154,156,158)"/><rect x="77.046" y="3.083" width="1.36" height="0.628" transform="matrix(1,0,0,1,0,0)" fill="rgb(154,156,158)"/><path d=" M 76.021 3.347 C 76.021 2.723 76.527 2.217 77.151 2.217 C 77.774 2.217 78.28 2.723 78.28 3.347 C 78.28 3.97 77.774 4.476 77.151 4.476 C 76.527 4.476 76.021 3.97 76.021 3.347 L 76.021 3.347 Z " fill="rgb(204,206,210)"/><path d=" M 76.021 3.389 C 76.021 2.788 76.508 2.301 77.109 2.301 C 77.709 2.301 78.197 2.788 78.197 3.389 C 78.197 3.989 77.709 4.476 77.109 4.476 C 76.508 4.476 76.021 3.989 76.021 3.389 Z " fill="rgb(178,180,183)"/><path d=" M 76.339 3.389 C 76.339 2.973 76.676 2.635 77.092 2.635 C 77.508 2.635 77.845 2.973 77.845 3.389 C 77.845 3.804 77.508 4.142 77.092 4.142 C 76.676 4.142 76.339 3.804 76.339 3.389 Z " fill="rgb(129,129,130)"/><path d=" M 76.406 3.389 C 76.406 2.991 76.728 2.669 77.126 2.669 C 77.523 2.669 77.845 2.991 77.845 3.389 C 77.845 3.786 77.523 4.108 77.126 4.108 C 76.728 4.108 76.406 3.786 76.406 3.389 Z " fill="rgb(168,168,173)"/><path d=" M 76.523 3.334 C 76.523 2.985 76.806 2.702 77.155 2.702 C 77.504 2.702 77.787 2.985 77.787 3.334 C 77.787 3.683 77.504 3.966 77.155 3.966 C 76.806 3.966 76.523 3.683 76.523 3.334 Z " fill="rgb(218,220,224)"/><path d=" M 76.523 3.384 C 76.523 3.063 76.784 2.803 77.105 2.803 C 77.426 2.803 77.686 3.063 77.686 3.384 C 77.686 3.705 77.426 3.966 77.105 3.966 C 76.784 3.966 76.523 3.705 76.523 3.384 Z " fill="rgb(178,180,183)"/><path d=" M 77.297 2.983 C 77.297 2.941 77.331 2.907 77.372 2.907 C 77.414 2.907 77.448 2.941 77.448 2.983 C 77.448 3.024 77.414 3.058 77.372 3.058 C 77.331 3.058 77.297 3.024 77.297 2.983 Z " fill="rgb(218,220,224)"/></g></g></g></svg>